<?xml version="1.0" encoding="utf-8"?>
<!-- Generator: Adobe Illustrator 25.4.1, SVG Export Plug-In . SVG Version: 6.00 Build 0)  -->
<svg version="1.1" id="_x3C_Layer_x3E_" xmlns="http://www.w3.org/2000/svg" xmlns:xlink="http://www.w3.org/1999/xlink" x="0px"
	 y="0px" viewBox="0 0 2760 1840" style="enable-background:new 0 0 2760 1840;" xml:space="preserve">
<style type="text/css">
	.st0{opacity:0.6;}
	.st1{fill:#CFE6FF;}
	.st2{fill:#B3D6F9;}
	.st3{fill:#BEDEFF;}
	.st4{fill:#A8CCFC;}
	.st5{fill:#FDBAA0;}
	.st6{opacity:0.5;}
	.st7{fill:#F18E7B;}
	.st8{opacity:0.5;fill:#F07B7E;}
	.st9{fill:#FFFFFF;}
	.st10{fill:#383463;}
	.st11{fill:#84C874;}
	.st12{fill:#9BD78E;}
	.st13{fill:#FFC6B2;}
	.st14{fill:#212121;}
	.st15{fill:#414141;}
	.st16{fill:#A8A8A8;}
	.st17{fill:#F07B7E;}
	.st18{fill:#5D52A1;}
	.st19{fill:#EC186A;}
</style>
<g>
	<g class="st0">
		<g>
			<path class="st1" d="M2096.55,942.12c1.39,3.94,2.65,7.91,3.79,11.9c0.11,0.39,0.22,0.77,0.32,1.15
				c3.41,12.27,5.6,24.81,6.28,37.39c0.03,0.45,0.05,0.9,0.06,1.34c2.5,53.76-22.42,108.24-95.81,145.91
				c-19.51,10.01-28.4,26.41-33.28,47.06c-0.11,0.44-0.21,0.86-0.3,1.31c-8.01,35.32-4.89,82.73-22.91,131.82
				c-0.19,0.53-0.39,1.05-0.58,1.58c-24.48,65.04-86.63,132.85-261.39,179.22c-0.59,0.16-1.17,0.32-1.76,0.47
				c0,0-0.65-0.54-1.85-1.59c-19.53-16.97-186.04-166.65-145.58-305.44c30.32-104.02,81.25-116.5,110.38-154.22
				c0.25-0.31,0.49-0.62,0.73-0.95c11.76-15.58,19.82-35.52,21.29-67.8c4.52-99.17,88.84-141.09,160.42-144.35
				c0.39-0.02,0.78-0.03,1.15-0.05c8.84-0.36,17.47-0.12,25.72,0.68c75.36,7.26,175.18-143.45,265.48-97.57
				C2219,775.86,2072.5,873.92,2096.55,942.12z"/>
		</g>
		<g>
			<g>
				<path class="st2" d="M2131.16,735.44c-4.56,2.84-9.09,5.74-13.57,8.7c-30.47,20.16-59.35,42.79-86.74,67.06
					c-0.32,0.27-0.63,0.55-0.95,0.83c-16.35,14.52-32.17,29.62-47.48,45.14c-54.67,55.37-103.08,117.01-143.59,183.45
					c-11.18,18.33-21.67,36.98-31.49,55.96c-0.14,0.24-0.26,0.49-0.39,0.74c-5.84,11.3-11.44,22.7-16.78,34.21
					c-0.19,0.38-0.37,0.75-0.53,1.12c-17.7,38.12-32.77,77.42-45.22,117.79c-1.44,4.65-2.84,9.31-4.23,13.98
					c-0.11,0.36-0.21,0.74-0.32,1.1c-15.58,52.71-27.92,106.5-36.89,160.76c-0.07,0.38-0.13,0.76-0.2,1.16
					c-2.04,12.43-3.92,24.9-5.6,37.38c-1.61,11.88-3.13,23.9-4.46,35.99c-0.59,0.16-1.17,0.32-1.76,0.47c0,0-0.65-0.54-1.85-1.59
					c2.14-19.68,4.86-39.24,7.85-58.57c4.72-30.49,10.42-60.88,17.18-91.03c0.09-0.42,0.18-0.83,0.28-1.26
					c9.43-41.95,20.88-83.47,34.49-124.2c2.28-6.82,4.64-13.62,7.09-20.38c0.13-0.36,0.26-0.72,0.39-1.08
					c20.4-56.14,46.47-110.02,77.36-161.12c0.2-0.35,0.41-0.69,0.61-1.02c5.72-9.45,11.61-18.8,17.65-28.06
					c1.35-2.07,2.72-4.13,4.08-6.19c0.24-0.37,0.49-0.75,0.75-1.12c32.18-48.35,68.55-93.94,108.52-136.08
					c0.27-0.3,0.55-0.59,0.83-0.88c10.21-10.74,20.65-21.25,31.32-31.53c40.37-38.89,84.04-75.13,131.7-104.78
					C2131.21,731.12,2133.15,734.21,2131.16,735.44z"/>
			</g>
		</g>
		<g>
			<g>
				<path class="st2" d="M1568.44,1137.5c15.59,89.62,84,154.99,147.55,214.31c0.53,0.49,1.28-0.33,0.75-0.83
					c-63.43-59.2-131.67-124.35-147.23-213.8C1569.38,1136.47,1568.31,1136.8,1568.44,1137.5L1568.44,1137.5z"/>
			</g>
		</g>
		<g>
			<g>
				<path class="st2" d="M1738.19,1265.43c66.46,3.78,133.23-19.88,191.58-49.77c16.54-8.47,32.66-17.75,48.3-27.77
					c0.61-0.39,0.01-1.33-0.6-0.94c-55.91,35.81-119.4,64.56-185.44,74.58c-17.83,2.7-35.88,3.82-53.89,2.8
					C1737.44,1264.27,1737.48,1265.39,1738.19,1265.43L1738.19,1265.43z"/>
			</g>
		</g>
		<g>
			<g>
				<path class="st2" d="M1836.58,825.77c-12.22,60.92-2.42,125.28,20.16,182.65c0.26,0.67,1.33,0.35,1.07-0.32
					c-22.52-57.2-32.32-121.33-20.14-182.08C1837.81,825.31,1836.72,825.07,1836.58,825.77L1836.58,825.77z"/>
			</g>
		</g>
		<g>
			<g>
				<path class="st2" d="M1797.86,833.26c-5.02,37.35-4.88,75.3,0.66,112.59c5.14,34.62,13.58,69.82,36.27,97.47
					c0.45,0.55,1.4-0.04,0.94-0.6c-22.97-28-31.36-63.85-36.39-98.92c-5.24-36.55-5.32-73.71-0.4-110.29
					C1799.04,832.8,1797.95,832.55,1797.86,833.26L1797.86,833.26z"/>
			</g>
		</g>
		<g>
			<g>
				<path class="st2" d="M1788.66,1132.66c92.94-0.3,185.55-32.42,260.31-87.31c21.03-15.44,40.61-32.77,58.41-51.85
					c0.49-0.53-0.33-1.28-0.83-0.75c-63.06,67.59-149,113.44-239.55,131.06c-25.83,5.03-52.07,7.64-78.39,7.73
					C1787.9,1131.54,1787.94,1132.66,1788.66,1132.66L1788.66,1132.66z"/>
			</g>
		</g>
		<g>
			<g>
				<path class="st2" d="M1807.48,1097.67c86.91-5.44,170.55-41.77,239.22-94.39c19.24-14.75,37.36-30.91,54.2-48.35
					c0.5-0.52-0.33-1.27-0.83-0.75c-59.88,62.02-137.05,109.14-220.71,130.82c-23.56,6.11-47.63,10.04-71.92,11.56
					C1806.73,1096.6,1806.76,1097.72,1807.48,1097.67L1807.48,1097.67z"/>
			</g>
		</g>
		<g>
			<g>
				<path class="st2" d="M1954.06,789.9c-5.24,27.07,0.71,56.52,12.07,81.32c0.3,0.65,1.24,0.05,0.94-0.6
					c-11.23-24.52-17.1-53.71-11.92-80.48C1955.29,789.44,1954.2,789.19,1954.06,789.9L1954.06,789.9z"/>
			</g>
		</g>
		<g>
			<g>
				<path class="st2" d="M2027.96,811.32c38.07,14.46,80.87,13.36,118.12-3.12c0.65-0.29,0.33-1.36-0.32-1.07
					c-36.98,16.36-79.47,17.55-117.28,3.19C2027.81,810.08,2027.29,811.07,2027.96,811.32L2027.96,811.32z"/>
			</g>
		</g>
		<g>
			<g>
				<path class="st2" d="M1653.82,1039.82c15.38,30.69,28.66,62.36,43.61,93.25c13.57,28.05,31.88,54.57,58.75,71.28
					c0.61,0.38,1.12-0.61,0.52-0.99c-27.95-17.38-46.32-45.39-60.1-74.62c-14.05-29.79-27.07-60.06-41.83-89.52
					C1654.44,1038.59,1653.5,1039.19,1653.82,1039.82L1653.82,1039.82z"/>
			</g>
		</g>
		<g>
			<g>
				<path class="st2" d="M1954.11,1320.11c-54.49,48.17-125.77,76.12-195.37,94.14c-19.11,4.95-38.42,9.07-57.87,12.41
					c-0.71,0.12-0.38,1.19,0.32,1.07c71.65-12.28,143.82-34.58,206.34-72.33c16.77-10.13,32.73-21.55,47.41-34.53
					C1955.47,1320.38,1954.64,1319.63,1954.11,1320.11L1954.11,1320.11z"/>
			</g>
		</g>
	</g>
	<g>
		<g>
			<path class="st3" d="M2305.4,1302.99c-24.2,29.39-98.66,40.51-108.31,79.61c-0.76,3.08-1.61,6.14-2.56,9.15
				c-0.09,0.29-0.18,0.58-0.27,0.87v0.01c-2.96,9.23-6.8,18.11-11.62,26.4v0.01c-0.17,0.29-0.34,0.59-0.51,0.87
				c-0.01,0-0.01,0.01-0.01,0.01c-20.86,35.24-59.46,59.48-121.87,52.8c-16.59-1.78-29.09,4.94-40.82,16.03
				c-0.25,0.24-0.49,0.47-0.74,0.71c-19.84,19.12-37.65,50.58-69.62,74.28c-0.34,0.25-0.68,0.5-1.02,0.76c-0.01,0-0.01,0-0.01,0.01
				c-12,8.75-25.99,16.39-42.78,21.9l-138.05-0.14c-18.46-4.1-38.49-9.66-60.27-16.92c-0.44-0.14-0.88-0.29-1.32-0.43
				c0,0-0.18-0.62-0.51-1.79c-5.35-18.95-48.74-183.69,34.95-255.07c60.53-51.63,97.68-41.02,131.01-50.85
				c1.2-0.35,2.41-0.73,3.61-1.15h0.01c0.29-0.09,0.57-0.19,0.86-0.3c13.98-5,27.44-14.32,41.85-34.23
				c44.3-61.19,115.42-52.65,162.31-24.83c0,0,0.01,0,0.01,0.01c0.25,0.15,0.5,0.3,0.75,0.45c5.77,3.47,11.16,7.22,16.07,11.17
				c44.9,36.08,171.33-18.09,209.61,48.8C2316.38,1279.02,2314.26,1292.23,2305.4,1302.99z"/>
		</g>
		<g>
			<g>
				<path class="st4" d="M2305.41,1265.6c-4.09-0.1-8.18-0.14-12.26-0.13c-27.8,0.1-55.62,2.43-83.17,6.43
					c-0.32,0.04-0.63,0.09-0.95,0.13c-16.46,2.41-32.83,5.41-49.05,8.88c-57.9,12.39-114.43,31.38-167.94,56.72
					c-14.76,6.99-29.23,14.47-43.4,22.44c-0.19,0.1-0.37,0.2-0.56,0.31c-8.43,4.75-16.75,9.66-24.96,14.75
					c-0.28,0.16-0.55,0.33-0.8,0.49c-27.18,16.86-53.17,35.56-77.95,56.04c-2.86,2.36-5.69,4.73-8.53,7.12
					c-0.22,0.19-0.44,0.38-0.66,0.57c-31.92,27.02-62.23,56.08-90.6,86.85c-0.2,0.21-0.4,0.43-0.61,0.65
					c-6.49,7.06-12.89,14.2-19.17,21.44c-5.99,6.89-11.97,13.89-17.87,21.03c-0.44-0.14-0.88-0.29-1.32-0.43
					c0,0-0.19-0.61-0.51-1.79c9.58-11.63,19.47-22.93,29.45-33.98c15.73-17.42,32.05-34.37,48.94-50.73
					c0.23-0.23,0.46-0.45,0.7-0.68c23.51-22.75,48.14-44.37,73.8-64.59c4.3-3.39,8.64-6.72,13.02-10c0.23-0.17,0.47-0.35,0.7-0.52
					c36.42-27.19,75.5-50.57,116.49-70.18c0.27-0.14,0.55-0.27,0.82-0.4c7.59-3.63,15.24-7.11,22.95-10.48
					c1.72-0.75,3.46-1.49,5.18-2.23c0.31-0.14,0.63-0.27,0.94-0.4c40.66-17.32,82.83-31.13,125.85-41.24
					c0.29-0.08,0.59-0.15,0.89-0.21c10.98-2.57,22.01-4.9,33.09-6.98c41.92-7.88,84.83-12.69,127.52-11.65
					C2307.24,1262.88,2307.19,1265.65,2305.41,1265.6z"/>
			</g>
		</g>
		<g>
			<g>
				<path class="st4" d="M1779.58,1286.34c-27.51,63.51-11.3,133.66,4.35,197.93c0.13,0.53,0.95,0.32,0.82-0.21
					c-15.62-64.14-31.82-134.08-4.36-197.47C1780.61,1286.08,1779.8,1285.85,1779.58,1286.34L1779.58,1286.34z"/>
			</g>
		</g>
		<g>
			<g>
				<path class="st4" d="M1834.14,1438.6c40.69,30.16,93.05,42.99,142.64,48.35c14.06,1.52,28.18,2.35,42.32,2.51
					c0.55,0.01,0.56-0.84,0.02-0.85c-50.52-0.57-102.91-8.8-149.09-30c-12.47-5.73-24.42-12.55-35.45-20.73
					C1834.14,1437.55,1833.7,1438.28,1834.14,1438.6L1834.14,1438.6z"/>
			</g>
		</g>
		<g>
			<g>
				<path class="st4" d="M2080.31,1200.04c-33.21,33.65-53.86,78.67-63.45,124.59c-0.11,0.53,0.7,0.78,0.82,0.24
					c9.56-45.79,30.11-90.67,63.22-124.22C2081.29,1200.26,2080.7,1199.65,2080.31,1200.04L2080.31,1200.04z"/>
			</g>
		</g>
		<g>
			<g>
				<path class="st4" d="M2052.56,1188.63c-18.79,21.66-34.55,45.86-46.59,71.89c-11.18,24.17-20.52,50.08-17.63,77.14
					c0.06,0.54,0.91,0.56,0.85,0.02c-2.92-27.4,6.72-53.71,18.16-78.12c11.93-25.44,27.4-49.1,45.81-70.32
					C2053.5,1188.83,2052.91,1188.22,2052.56,1188.63L2052.56,1188.63z"/>
			</g>
		</g>
		<g>
			<g>
				<path class="st4" d="M1921.68,1375.23c59.24,38.62,131.56,56.86,202.03,53.17c19.82-1.04,39.52-3.89,58.81-8.59
					c0.53-0.13,0.32-0.95-0.21-0.82c-68.34,16.66-142.15,9.93-207.1-16.67c-18.53-7.59-36.31-16.88-53.09-27.82
					C1921.66,1374.2,1921.22,1374.93,1921.68,1375.23L1921.68,1375.23z"/>
			</g>
		</g>
		<g>
			<g>
				<path class="st4" d="M1948.26,1360.84c57.55,32.83,125.92,44.65,191.57,39.86c18.4-1.34,36.67-4.06,54.67-8.12
					c0.53-0.12,0.32-0.94-0.21-0.82c-63.99,14.44-132.75,12.19-195.02-8.96c-17.53-5.95-34.49-13.51-50.57-22.68
					C1948.23,1359.84,1947.79,1360.56,1948.26,1360.84L1948.26,1360.84z"/>
			</g>
		</g>
		<g>
			<g>
				<path class="st4" d="M2170.02,1226.28c-14.64,15.03-23.15,36.25-26.28,56.76c-0.08,0.54,0.77,0.55,0.85,0.02
					c3.1-20.29,11.55-41.31,26.02-56.17C2170.99,1226.5,2170.4,1225.89,2170.02,1226.28L2170.02,1226.28z"/>
			</g>
		</g>
		<g>
			<g>
				<path class="st4" d="M2208.08,1270.77c18.18,25.09,45.85,42.27,76.43,47.34c0.53,0.09,0.78-0.73,0.24-0.82
					c-30.35-5.04-57.88-22.02-75.93-46.94C2208.5,1269.92,2207.76,1270.33,2208.08,1270.77L2208.08,1270.77z"/>
			</g>
		</g>
		<g>
			<g>
				<path class="st4" d="M1874.68,1259.87c-3.03,25.94-7.81,51.63-11.2,77.52c-3.08,23.51-2.51,48.03,7.6,69.87
					c0.23,0.5,0.97,0.08,0.74-0.42c-10.52-22.72-10.51-48.21-7.07-72.56c3.51-24.82,7.87-49.51,10.77-74.41
					C1875.59,1259.34,1874.74,1259.33,1874.68,1259.87L1874.68,1259.87z"/>
			</g>
		</g>
		<g>
			<g>
				<path class="st4" d="M1948.64,1563.55c-54.78,7.88-111.79-4.1-163.58-21.71c-14.22-4.83-28.23-10.27-41.99-16.28
					c-0.5-0.22-0.74,0.6-0.24,0.82c50.7,22.11,105.92,38.07,161.45,40.16c14.89,0.56,29.81-0.04,44.57-2.16
					C1949.39,1564.29,1949.17,1563.47,1948.64,1563.55L1948.64,1563.55z"/>
			</g>
		</g>
	</g>
	<g>
		<g>
			<path class="st1" d="M1206.7,1741.64l-25.6,0.03h-4.94l-72.61,0.08h-0.01l-3.04,0.01l-246.09,0.27
				c-15.05-15.32-28.71-30.51-42.04-41.36c-0.33-0.28-0.65-0.53-0.97-0.79l-0.01-0.01c-15.45-12.34-31.38-19.25-51.44-15.39
				c-75.48,14.52-125.05-11.13-154.11-52c-0.25-0.34-0.49-0.67-0.73-1.02v-0.01c-6.72-9.61-12.32-20.08-16.87-31.03v-0.01
				c-0.14-0.34-0.28-0.68-0.42-1.03v-0.01c-1.46-3.59-2.81-7.21-4.05-10.9c-21.54-63.85-185.35-51.61-145.47-137.14
				c39.9-85.54,199.7-32.32,250.81-80.94c5.6-5.33,11.79-10.47,18.49-15.28c0.28-0.2,0.57-0.42,0.87-0.63c0.01,0,0.01,0,0.01,0
				c54.37-38.74,140.3-56.41,200.6,13.74c17.94,20.89,34.01,31.04,50.07,36.19c1.49,0.48,3,0.92,4.49,1.31
				c0.36,0.11,0.71,0.2,1.08,0.29h0.01c43.04,10.93,87.57-9.17,169.56,49.72C1227.54,1522.7,1215.25,1681.43,1206.7,1741.64z"/>
		</g>
		<g>
			<g>
				<path class="st2" d="M1181.1,1741.67h-4.94l-0.03-0.03c-8.12-7.89-16.36-15.69-24.7-23.35l-0.01-0.01
					c-0.28-0.25-0.54-0.49-0.81-0.74c-37.75-34.65-77.7-67.01-119.41-96.73c-0.29-0.2-0.58-0.42-0.87-0.63
					c-3.71-2.62-7.41-5.23-11.14-7.81c-22.28-15.49-45.19-29.89-68.71-43.17c-10.59-5.99-21.3-11.74-32.13-17.27
					c-0.33-0.18-0.68-0.35-1.03-0.52c0,0,0,0-0.01,0c-10.52-5.37-21.18-10.52-31.95-15.46h-0.01c-0.24-0.1-0.47-0.21-0.71-0.31
					c0,0,0-0.01-0.01,0c-18.11-8.29-36.51-15.94-55.24-22.97c-67.88-25.46-138.81-42.87-210.72-52.08
					c-20.15-2.58-40.42-4.57-60.76-5.84c-0.4-0.02-0.79-0.05-1.18-0.07c-34.03-2.07-68.22-2.07-102.15,0.65
					c-4.99,0.4-9.97,0.87-14.95,1.41c-2.17,0.23-2.52-3.15-0.35-3.38c51.99-5.63,104.85-4.13,156.81,1.21
					c13.72,1.41,27.41,3.13,41.07,5.14h0.02c0.37,0.05,0.74,0.1,1.1,0.16h0.01c53.54,7.96,106.4,20.51,157.78,37.49h0.01
					c0.4,0.13,0.8,0.26,1.2,0.39c2.18,0.73,4.37,1.46,6.55,2.2c9.75,3.32,19.43,6.79,29.06,10.44c0.34,0.14,0.69,0.27,1.04,0.4h0.01
					c40.23,15.27,79.29,33.42,116.77,54.49c10.99,6.18,21.83,12.6,32.53,19.27c0,0,0.01,0,0.01,0.01c0.31,0.18,0.6,0.36,0.91,0.55
					c5.68,3.56,11.31,7.19,16.91,10.88c33.38,22.06,65.63,45.94,96.64,71.3c0.32,0.26,0.63,0.51,0.94,0.77
					c22.28,18.24,43.91,37.25,64.89,56.9c5.86,5.49,11.7,11.05,17.51,16.67C1181.08,1741.65,1181.09,1741.66,1181.1,1741.67z"/>
			</g>
		</g>
		<g>
			<g>
				<path class="st2" d="M1083.42,1428.42c40.05,74.7,27.42,161.95,14.88,241.97c-0.1,0.66-1.13,0.49-1.03-0.17
					c12.52-79.87,25.16-166.87-14.82-241.42C1082.14,1428.21,1083.11,1427.84,1083.42,1428.42L1083.42,1428.42z"/>
			</g>
		</g>
		<g>
			<g>
				<path class="st2" d="M1032.38,1619.79c-46.58,40.96-109.16,61.95-169.14,73.55c-17,3.29-34.15,5.74-51.39,7.38
					c-0.67,0.06-0.77-0.97-0.11-1.04c61.59-5.85,124.68-21.23,178.88-51.82c14.63-8.26,28.52-17.81,41.14-28.91
					C1032.27,1618.51,1032.88,1619.35,1032.38,1619.79L1032.38,1619.79z"/>
			</g>
		</g>
		<g>
			<g>
				<path class="st2" d="M707.64,1353.79c43.96,37.67,73.75,90.51,90.13,145.57c0.19,0.64-0.78,1.02-0.97,0.38
					c-16.34-54.9-45.99-107.58-89.82-145.14C706.47,1354.16,707.13,1353.35,707.64,1353.79L707.64,1353.79z"/>
			</g>
		</g>
		<g>
			<g>
				<path class="st2" d="M740.34,1337.03c25.14,24.52,46.84,52.44,64.19,82.98c16.11,28.35,30.15,59.02,29.39,92.34
					c-0.01,0.66-1.05,0.77-1.04,0.11c0.77-33.73-13.67-64.86-30.13-93.47c-17.15-29.82-38.44-57.13-63.07-81.14
					C739.21,1337.38,739.86,1336.56,740.34,1337.03L740.34,1337.03z"/>
			</g>
		</g>
		<g>
			<g>
				<path class="st2" d="M919.09,1551.38c-68.35,53.17-154.74,82.81-241.12,85.5c-24.3,0.76-48.62-0.71-72.64-4.48
					c-0.66-0.1-0.49-1.13,0.17-1.03c85.09,13.35,174.47-2.38,251.02-41.47c21.83-11.15,42.59-24.31,61.94-39.36
					C919,1550.13,919.62,1550.97,919.09,1551.38L919.09,1551.38z"/>
			</g>
		</g>
		<g>
			<g>
				<path class="st2" d="M885.18,1536.53c-66.88,45.94-149.11,67.33-229.71,68.18c-22.59,0.24-45.17-1.21-67.54-4.33
					c-0.66-0.09-0.49-1.12,0.17-1.03c79.56,11.09,163.23,1.33,237.06-30.82c20.79-9.05,40.71-20,59.4-32.84
					C885.12,1535.31,885.73,1536.15,885.18,1536.53L885.18,1536.53z"/>
			</g>
		</g>
		<g>
			<g>
				<path class="st2" d="M600.84,1394.96c19.4,16.85,31.95,41.87,37.86,66.58c0.16,0.65-0.88,0.75-1.04,0.11
					c-5.85-24.44-18.31-49.23-37.49-65.88C599.68,1395.33,600.34,1394.52,600.84,1394.96L600.84,1394.96z"/>
			</g>
		</g>
		<g>
			<g>
				<path class="st2" d="M558.94,1453.13c-19.62,32.48-51.64,56.26-88.44,65.57c-0.64,0.16-1.03-0.81-0.38-0.97
					c36.52-9.24,68.38-32.78,87.87-65.03C558.33,1452.13,559.29,1452.55,558.94,1453.13L558.94,1453.13z"/>
			</g>
		</g>
		<g>
			<g>
				<path class="st2" d="M964.68,1405.82c6.35,31.35,14.79,62.21,21.58,93.46c6.16,28.37,7.96,58.35-2.15,86.04
					c-0.23,0.63-1.18,0.2-0.95-0.43c10.52-28.8,7.91-59.9,1.22-89.26c-6.81-29.92-14.65-59.61-20.74-89.7
					C963.51,1405.27,964.54,1405.16,964.68,1405.82L964.68,1405.82z"/>
			</g>
		</g>
		<g>
			<g>
				<path class="st2" d="M1152.76,1717.59c-0.44,0.24-0.89,0.48-1.33,0.71c-15.49,8.33-31.39,16.17-47.63,23.35
					c-0.08,0.04-0.17,0.07-0.25,0.11h-0.01l-3.04,0.01c0.09-0.04,0.18-0.08,0.27-0.12c0.68-0.3,1.34-0.59,2.03-0.89
					c16.25-7.08,32.19-14.82,47.81-23.21c0.6-0.3,1.19-0.61,1.77-0.94C1152.97,1716.29,1153.34,1717.27,1152.76,1717.59z"/>
			</g>
		</g>
	</g>
	<g>
		<g>
			<g>
				<g>
					<g>
						<g>
							<g>
								<path class="st5" d="M1695.44,678.09c-56,49.06-191.38,111.97-211.12,202.75c-59.98,275.83-148.78,248.52-172.2,281.14
									c-41.79,58.19,12.67,541.39,7.4,579.78H937.19c3.99-10.49,49.89-635.53,12.92-738.12c-23.28-64.58-10.38-65.61-12.23-162.48
									c0,0,57.12-23.95,120.57-90.61c64.43-67.55,108.41-150.94,134.74-238.95c19.27-64.4,59.29-96.1,88.98-139.06
									c28.47-41.18,63.01-84.19,92.79-120.05c49.69-59.8,102.5-16.63,80.5,38.84c-42.21,106.33-164.29,282.06-141.13,281.93
									c12.45-0.08,90.1-80.49,145.22-177.01c46.35-81.15,133.66-201.29,176.07-172.48c33.39,22.68,22.7,55.16-93.15,222.69
									c-68.74,99.38-153.32,223.09-139.01,227.56c14.33,4.47,83.46-89.95,143.89-158.92c56.9-64.93,124.73-187.92,162.08-156.16
									c45.28,38.48-6.38,90.64-103.22,225.66c-59.2,82.54-136.67,168.64-112.31,168.42c46.12-0.38,169.89-217.93,235.08-163.33
									C1733.9,593.81,1754.46,626.37,1695.44,678.09z"/>
							</g>
						</g>
					</g>
				</g>
			</g>
		</g>
		<g class="st6">
			<g>
				<path class="st7" d="M1253.98,1063.42c52.47-13.69,172.09-8.13,172.09-8.13l0.03-0.04c9.7-18.11,19.37-40.12,28.76-67.05
					l-31-16.65L1253.98,1063.42z"/>
			</g>
		</g>
		<g>
			<g>
				<g>
					<path class="st7" d="M1356.84,1134.99c-22.91,12.36-48.03,18.85-74.05,19.13c-1.65,0.02-1.65-2.54,0-2.56
						c25.61-0.27,50.22-6.62,72.76-18.78C1357,1132,1358.3,1134.21,1356.84,1134.99L1356.84,1134.99z"/>
				</g>
			</g>
		</g>
		<g>
			<path class="st5" d="M941.94,992.88c-38.99-59.68-9.19-182.76-0.4-302.06c6.13-83.18,10.33-106.44,35.89-142.95
				c19.6-27.99,28.35-88.29,30.89-122.21c0.1-1.24,0.14-1.91,0.14-1.91c2.03-21.26,43-16.78,65.58,24.92
				c22.57,41.71-0.21,125.85-0.21,125.85c1.82,22.43-8.68,81.6-15.52,100.77c-6.83,19.15,46.63,114.63,54.75,230
				C1121.2,1020.67,994.09,1072.74,941.94,992.88z"/>
		</g>
	</g>
	<path class="st8" d="M1296.53,1153.57l-0.14-0.3l-1.17-2.46l-205.8-436.05c-5.36,6.77-10.74,13.23-16.11,19.36
		c-1.54-4.49-3.03-8.78-4.42-12.85c-2.28,10-5.55,20.3-10.19,28.68c-0.09,0.16-0.18,0.32-0.26,0.48
		c-13.82,25.18-24.95,66.96-13.08,126.53c4.43,22.21,5.76,78.49,7.53,143.86c3.03,111,7.36,248.2,30.47,289.36
		c30.74,54.76,171.08,86.06,215.89,94.78c-4.5-96.71-5.09-186.71,5.98-226.79L1296.53,1153.57z"/>
	<g>
		<path class="st9" d="M1616.96,1325.11h-466.4c-37.11,0-67.19-30.08-67.19-67.19V364.03c0-37.11,30.08-67.19,67.19-67.19h466.4
			c37.11,0,67.19,30.08,67.19,67.19v893.88C1684.15,1295.02,1654.07,1325.11,1616.96,1325.11z"/>
	</g>
	<g>
		<g>
			<path class="st10" d="M1622.33,1333.49h-477.15c-38.71,0-70.21-31.49-70.21-70.21V358.66c0-38.71,31.49-70.21,70.21-70.21h477.15
				c38.71,0,70.21,31.49,70.21,70.21v904.63C1692.54,1302,1661.05,1333.49,1622.33,1333.49z M1145.18,305.23
				c-29.46,0-53.43,23.97-53.43,53.43v904.63c0,29.46,23.97,53.43,53.43,53.43h477.15c29.46,0,53.43-23.97,53.43-53.43V358.66
				c0-29.46-23.97-53.43-53.43-53.43H1145.18z"/>
		</g>
	</g>
	<g>
		<g>
			<path class="st10" d="M1621.42,1332.58h-477.15c-38.71,0-70.21-31.49-70.21-70.21V357.75c0-38.71,31.49-70.21,70.21-70.21h477.15
				c38.71,0,70.21,31.49,70.21,70.21v904.63C1691.63,1301.09,1660.13,1332.58,1621.42,1332.58z M1144.27,304.31
				c-29.46,0-53.43,23.97-53.43,53.43v904.63c0,29.46,23.97,53.43,53.43,53.43h477.15c29.46,0,53.43-23.97,53.43-53.43V357.75
				c0-29.46-23.97-53.43-53.43-53.43H1144.27z"/>
		</g>
	</g>
	<g>
		<path class="st11" d="M1487.3,1057.22h-235.96c-43.59,0-78.92-35.33-78.92-78.92v0c0-43.59,35.33-78.92,78.92-78.92h235.96
			c43.59,0,78.92,35.33,78.92,78.92v0C1566.22,1021.89,1530.88,1057.22,1487.3,1057.22z"/>
	</g>
	<g>
		<path class="st12" d="M1502.54,1057.22h-235.96c-43.59,0-78.92-35.33-78.92-78.92v0c0-43.59,35.33-78.92,78.92-78.92h235.96
			c43.59,0,78.92,35.33,78.92,78.92v0C1581.46,1021.89,1546.13,1057.22,1502.54,1057.22z"/>
	</g>
	<g>
		<g>
			<path class="st7" d="M931.43,969.77c7.35,19.37,19.95,36.41,36.42,49.01c19.62,15,43.12,20.78,66.85,25.86
				c1.34,0.29,1.91-1.77,0.57-2.05c-22.46-4.81-44.96-10.13-63.89-23.82c-17.15-12.41-30.39-29.77-37.89-49.56
				C933.01,967.94,930.95,968.49,931.43,969.77L931.43,969.77z"/>
		</g>
	</g>
	<g>
		<g>
			<path class="st7" d="M1034.49,675.05c7.07,2.61,14.14,5.22,21.2,7.84c-0.08-0.65-0.17-1.3-0.25-1.94
				c-4.89,3.74-10.18,6.65-15.99,8.73c-1.28,0.46-0.73,2.52,0.57,2.05c5.98-2.14,11.45-5.08,16.5-8.94
				c0.74-0.57,0.65-1.61-0.25-1.94c-7.07-2.61-14.14-5.22-21.2-7.84C1033.77,672.52,1033.21,674.58,1034.49,675.05L1034.49,675.05z"
				/>
		</g>
	</g>
	<g>
		<path class="st13" d="M1023.85,512.84c-6.33,2.72-20.2,0.53-29.93-2.76c0-47.65,7.02-79.19,14.4-84.55
			c6.28,2.49,13.08,6.44,15.53,12.33C1028.83,449.81,1034.8,508.14,1023.85,512.84z"/>
	</g>
	<g>
		<path class="st1" d="M1674.85,857.42h-504.04c-16.87,0-30.54-14.27-30.54-31.86V443.15c0-17.59,13.67-31.86,30.54-31.86h140.93
			l357.89,142.22L1674.85,857.42z"/>
	</g>
	<g>
		<path class="st14" d="M1880.22,429.59v366.61c0,16.86-13.67,30.54-30.54,30.54h-678.87c-16.87,0-30.54-13.68-30.54-30.54V429.59
			c0-16.86,13.67-30.54,30.54-30.54h678.87C1866.56,399.05,1880.22,412.72,1880.22,429.59z"/>
	</g>
	<g>
		<path class="st15" d="M1789.03,826.73h-618.22c-16.87,0-30.54-13.68-30.54-30.54V429.59c0-16.86,13.67-30.54,30.54-30.54h140.93
			L1789.03,826.73z"/>
	</g>
	<g>
		<g>
			<path class="st10" d="M1030.5,329.45l-29.12-7.27c7.19-28.8,24.23-54.52,47.98-72.45c23.14-17.45,50.62-26.56,79.53-26.32
				l-0.24,30.02c-22.2-0.2-43.39,6.83-61.21,20.27C1048.89,287.7,1036.11,306.98,1030.5,329.45z"/>
		</g>
		<g>
			<path class="st10" d="M969.32,314.11l-29.12-7.28c10.68-42.71,35.96-80.86,71.18-107.43c34.31-25.89,75.1-39.38,117.96-39.04
				l-0.24,30.02c-36.23-0.3-70.65,11.11-99.64,32.98C999.27,246.14,978.48,277.52,969.32,314.11z"/>
		</g>
		<g>
			<path class="st10" d="M908.82,298.95l-29.12-7.28c14.12-56.49,47.55-106.95,94.11-142.08c44.8-33.79,97.96-51.62,153.86-51.62
				c0.71,0,1.42,0,2.13,0.01l-0.24,30.02c-50.06-0.43-97.62,15.35-137.66,45.56C950.79,204.56,921.28,249.1,908.82,298.95z"/>
		</g>
	</g>
	<g>
		<g>
			<path class="st16" d="M1411.48,483.95h-227.57c-3.64,0-6.61-6.12-6.61-13.6l0,0c0-7.48,2.98-13.6,6.61-13.6h227.57
				c3.64,0,6.61,6.12,6.61,13.6l0,0C1418.09,477.83,1415.12,483.95,1411.48,483.95z"/>
		</g>
		<g>
			<path class="st16" d="M1295.33,506.91h-114.69c-1.83,0-3.33-1.5-3.33-3.33l0,0c0-1.83,1.5-3.33,3.33-3.33h114.69
				c1.83,0,3.33,1.5,3.33,3.33l0,0C1298.66,505.41,1297.16,506.91,1295.33,506.91z"/>
		</g>
		<g>
			<path class="st16" d="M1429.84,506.91h-114.69c-1.83,0-3.33-1.5-3.33-3.33l0,0c0-1.83,1.5-3.33,3.33-3.33h114.69
				c1.83,0,3.33,1.5,3.33,3.33l0,0C1433.17,505.41,1431.67,506.91,1429.84,506.91z"/>
		</g>
	</g>
	<g>
		<path class="st1" d="M1398.87,1315.81c0,0-52.71-196.52-37.81-261.38s135.9,261.58,135.9,261.58L1398.87,1315.81z"/>
	</g>
	<g>
		<g>
			<g>
				<g>
					<g>
						<g>
							<path class="st5" d="M2038.06,1741.64h-430.32c-11.28-8.74-23.36-18.58-36.38-29.66c-0.13-0.13-2.21-1.77-4.91-4.69
								c-42.03-44.97-6.76-148.21,24.21-146.39c-23.89-41.95-62.5-117.49-93.34-186.35c-25.66-57.32-43.76-104.26-64.16-148.58
								c-19.55-42.48-38.07-81.94-57.63-120.86c-47.77-95.02,12.75-123.26,46.85-79.17c65.34,84.47,171.26,299.3,182.14,280.58
								c5.88-10.05-6.21-69.33,61.86-67.21c36.33,1.14,54.01,55.3,61.56,43.5c8.24-12.85-3.11-47.47,52.5-53.14
								c31.73-3.23,49.41,23.9,54.06,18.05c18.47-23.16,37.61-18.27,57.16-11.81c41.85,13.82,47.39,88.51,86.65,213.91
								C1996.13,1506.66,2021.35,1683.01,2038.06,1741.64z"/>
						</g>
					</g>
				</g>
			</g>
		</g>
		<g>
			<g>
				<path class="st13" d="M1364.09,1029.39c0,0,8.29,38.29,23.16,44.9s39.44-8.66,39.72-16.13c0.28-7.46-21.94-43.21-26.56-45.08
					C1395.78,1011.22,1369.21,1020.3,1364.09,1029.39z"/>
			</g>
		</g>
		<g>
			<g>
				<g>
					<path class="st7" d="M1584.58,1552.46c15.66,23.05,29.16,47.37,40.45,72.84c0.62,1.4,2.68,0.19,2.07-1.21
						c-11.29-25.47-24.79-49.79-40.45-72.84C1585.79,1549.98,1583.72,1551.18,1584.58,1552.46L1584.58,1552.46z"/>
				</g>
			</g>
		</g>
		<g>
			<path class="st5" d="M1780.45,1741.64h-175.84c-41.62-34.61-87.42-83.51-116.42-120.58c-45.57-58.21-54.54-74.96-63.52-113.42
				c-8.97-38.46-63.52-93.85-63.59-93.95c-12.81-13.87,14.33-38.31,55.26-28.52c40.89,9.78,82.94,74.58,82.94,74.58
				c15.89,12.06,48.74,54.02,57.35,69.88c2.39,4.4,11.41,9.2,24.92,15.2h0.01c18.88,9.45,95.12,34.87,159.3,84.72
				C1781.94,1661.44,1791.67,1706.54,1780.45,1741.64z"/>
		</g>
		<g>
			<g>
				<path class="st7" d="M1565.55,1514.97c19.41,37.33,36.11,75.99,49.98,115.72c0.45,1.28,2.51,0.73,2.05-0.57
					c-13.93-39.89-30.7-78.73-50.19-116.22C1566.76,1512.68,1564.92,1513.75,1565.55,1514.97L1565.55,1514.97z"/>
			</g>
		</g>
		<g>
			<g>
				<path class="st7" d="M1497.29,1458.36c-6.33,0.22-12.35,1.59-18.17,4.1c-1.25,0.54-0.17,2.37,1.07,1.84
					c5.46-2.35,11.15-3.6,17.1-3.81C1498.66,1460.44,1498.66,1458.31,1497.29,1458.36L1497.29,1458.36z"/>
			</g>
		</g>
		<g>
			<g>
				<path class="st7" d="M1494.84,1459.89c-2.52,2.01-4.8,4.28-6.82,6.8c-0.85,1.06,0.65,2.57,1.5,1.5c2.02-2.52,4.29-4.79,6.82-6.8
					C1497.42,1460.54,1495.9,1459.04,1494.84,1459.89L1494.84,1459.89z"/>
			</g>
		</g>
		<g>
			<g>
				<path class="st7" d="M1565.66,1537.44c-3.74-2.61-7.93-4.08-12.46-4.5c-1.36-0.12-1.35,2,0,2.13c4.16,0.38,7.96,1.82,11.38,4.21
					C1565.71,1540.06,1566.77,1538.22,1565.66,1537.44L1565.66,1537.44z"/>
			</g>
		</g>
		<g>
			<g>
				<path class="st7" d="M1592.91,1300.31c7.23,7.53,14.46,15.06,21.68,22.58c0.95,0.99,2.45-0.52,1.5-1.5
					c-7.23-7.53-14.46-15.06-21.68-22.58C1593.47,1297.82,1591.96,1299.32,1592.91,1300.31L1592.91,1300.31z"/>
			</g>
		</g>
		<g>
			<g>
				<path class="st7" d="M1717.96,1281.93c5.13,3.97,10.92,6.52,17.35,7.51c1.34,0.2,1.92-1.85,0.57-2.05
					c-6.03-0.92-11.57-3.22-16.41-6.96C1718.4,1279.59,1716.88,1281.09,1717.96,1281.93L1717.96,1281.93z"/>
			</g>
		</g>
		<g>
			<g>
				<path class="st7" d="M1825.88,1244.43c5.55,6.09,12.6,10.25,20.62,12.16c1.33,0.32,1.9-1.73,0.57-2.05
					c-7.68-1.83-14.36-5.78-19.68-11.61C1826.46,1241.91,1824.96,1243.42,1825.88,1244.43L1825.88,1244.43z"/>
			</g>
		</g>
		<g>
			<path class="st13" d="M1412.74,1447.58c0.32,7.03-5.45,12.67-10.25,16.12c-27.79-25.27-42.36-47.8-41.39-49.98l-0.03-0.03
				c0,0,7.41-13.77,17.06-6.96C1387.76,1413.54,1412.18,1435.67,1412.74,1447.58z"/>
		</g>
		<g>
			<g>
				<path class="st7" d="M1466.23,1218.62c9.41-7.25,20.18-11.92,31.9-13.84c1.35-0.22,0.78-2.27-0.57-2.05
					c-11.89,1.95-22.86,6.7-32.4,14.05C1464.09,1217.6,1465.15,1219.45,1466.23,1218.62L1466.23,1218.62z"/>
			</g>
		</g>
		<g>
			<g>
				<path class="st7" d="M1481.14,1222.81c3.39-1.19,6.77-2.38,10.16-3.57c1.28-0.45,0.73-2.51-0.57-2.05
					c-3.39,1.19-6.77,2.38-10.16,3.57C1479.29,1221.21,1479.84,1223.27,1481.14,1222.81L1481.14,1222.81z"/>
			</g>
		</g>
		<g class="st6">
			<path class="st17" d="M1556.63,1529.62c-16.47,4.55-79.73-59.38-103.79-98.14c-24.06-38.77-79.02-43.77-79.02-43.77
				c10.41-4.7,25.23-6.68,42.52-2.55c40.89,9.78,82.94,74.58,82.94,74.58C1515.17,1471.8,1548.01,1513.76,1556.63,1529.62z"/>
		</g>
	</g>
	<g>
		<g>
			<g>
				<path class="st16" d="M1190.01,730.24L1190.01,730.24c0-4.99,4.08-9.06,9.06-9.06h448.72c4.99,0,9.06,4.08,9.06,9.06l0,0
					c0,4.99-4.08,9.06-9.06,9.06h-448.72C1194.09,739.31,1190.01,735.23,1190.01,730.24z"/>
			</g>
		</g>
		<g>
			<g>
				<path class="st16" d="M1190.01,698.32L1190.01,698.32c0-4.99,4.08-9.06,9.06-9.06h448.72c4.99,0,9.06,4.08,9.06,9.06l0,0
					c0,4.99-4.08,9.06-9.06,9.06h-448.72C1194.09,707.38,1190.01,703.3,1190.01,698.32z"/>
			</g>
		</g>
		<g>
			<g>
				<path class="st16" d="M1190.01,666.4L1190.01,666.4c0-4.99,4.08-9.06,9.06-9.06h448.72c4.99,0,9.06,4.08,9.06,9.06l0,0
					c0,4.99-4.08,9.06-9.06,9.06h-448.72C1194.09,675.46,1190.01,671.38,1190.01,666.4z"/>
			</g>
		</g>
		<g>
			<g>
				<path class="st16" d="M1190.01,634.47L1190.01,634.47c0-4.99,4.08-9.06,9.06-9.06h448.72c4.99,0,9.06,4.08,9.06,9.06l0,0
					c0,4.99-4.08,9.06-9.06,9.06h-448.72C1194.09,643.54,1190.01,639.46,1190.01,634.47z"/>
			</g>
		</g>
	</g>
	<g>
		<path class="st9" d="M1232.48,992.57l9.5-32.9h7.51l9.5,32.9h-6.6l-6.44-24.86h-0.42l-6.44,24.86H1232.48z M1237.28,986.34v-5.65
			h16.68v5.65H1237.28z"/>
		<path class="st9" d="M1262.49,992.57v-32.9h6.12v32.9H1262.49z M1268.28,992.57v-5.86h2.57c3.01,0,5.27-0.86,6.78-2.58
			c1.51-1.72,2.26-4.24,2.26-7.54c0-3.65-0.75-6.4-2.26-8.27c-1.51-1.87-3.77-2.8-6.78-2.8h-2.48l-0.56-5.84h3.04
			c10.3,0,15.46,5.64,15.46,16.92c0,10.66-5.15,15.99-15.46,15.99H1268.28z"/>
		<path class="st9" d="M1290.29,992.57v-32.9h6.12v32.9H1290.29z M1296.09,992.57v-5.86h2.57c3.01,0,5.27-0.86,6.78-2.58
			c1.51-1.72,2.26-4.24,2.26-7.54c0-3.65-0.75-6.4-2.26-8.27c-1.51-1.87-3.77-2.8-6.78-2.8h-2.48l-0.56-5.84h3.04
			c10.3,0,15.46,5.64,15.46,16.92c0,10.66-5.15,15.99-15.46,15.99H1296.09z"/>
		<path class="st9" d="M1360.38,993.03c-10.49,0-15.73-5.65-15.73-16.96c0-5.36,1.32-9.51,3.96-12.46
			c2.64-2.94,6.38-4.41,11.21-4.41c2.18,0,4.11,0.35,5.79,1.05c1.68,0.7,2.96,1.7,3.82,3l-3.43,4.47c-0.69-0.87-1.58-1.53-2.65-2
			c-1.07-0.47-2.24-0.71-3.49-0.71c-2.66,0-4.78,0.94-6.38,2.82c-1.6,1.88-2.4,4.54-2.4,8c0,7.57,3.36,11.35,10.08,11.35
			c2.24,0,4.45-0.46,6.63-1.39l1.07,5.65C1366.18,992.51,1363.35,993.03,1360.38,993.03z"/>
		<path class="st9" d="M1384.76,993.03c-8.36,0-12.53-5.56-12.53-16.68c0-11.43,4.18-17.15,12.53-17.15
			c8.36,0,12.54,5.71,12.54,17.15C1397.29,987.47,1393.12,993.03,1384.76,993.03z M1384.76,987.19c4.08,0,6.12-3.61,6.12-10.84
			c0-7.55-2.04-11.33-6.12-11.33c-4.08,0-6.12,3.78-6.12,11.33C1378.64,983.58,1380.68,987.19,1384.76,987.19z"/>
		<path class="st9" d="M1401.7,992.57v-32.9h5.89v32.9H1401.7z M1414.23,992.57l-5.79-25.72h-2.53v-7.18h4.98l5.79,25.72h1.55v7.18
			H1414.23z M1417.54,992.57v-32.9h5.89v32.9H1417.54z"/>
		<path class="st9" d="M1427.93,965.3v-5.63h24.88v5.63H1427.93z M1437.31,992.57v-32.9h6.12v32.9H1437.31z"/>
		<path class="st9" d="M1454.92,992.57l9.5-32.9h7.51l9.5,32.9h-6.6l-6.44-24.86h-0.42l-6.44,24.86H1454.92z M1459.72,986.34v-5.65
			h16.68v5.65H1459.72z"/>
		<path class="st9" d="M1499.41,993.03c-10.49,0-15.73-5.65-15.73-16.96c0-5.36,1.32-9.51,3.96-12.46
			c2.64-2.94,6.38-4.41,11.21-4.41c2.18,0,4.11,0.35,5.79,1.05c1.68,0.7,2.96,1.7,3.82,3l-3.43,4.47c-0.7-0.87-1.58-1.53-2.65-2
			c-1.07-0.47-2.24-0.71-3.49-0.71c-2.66,0-4.79,0.94-6.38,2.82s-2.4,4.54-2.4,8c0,7.57,3.36,11.35,10.08,11.35
			c2.24,0,4.45-0.46,6.63-1.39l1.07,5.65C1505.2,992.51,1502.37,993.03,1499.41,993.03z"/>
		<path class="st9" d="M1511.34,965.3v-5.63h24.88v5.63H1511.34z M1520.72,992.57v-32.9h6.12v32.9H1520.72z"/>
	</g>
</g>
<g>
	<path class="st18" d="M1669.65,470.22c0,0.15-0.01,0.27-0.03,0.35c-0.04,1.33-0.33,2.57-0.86,3.72c-0.53,1.15-1.24,2.16-2.12,3.02
		c-0.89,0.87-1.92,1.55-3.09,2.04c-1.17,0.5-2.42,0.74-3.75,0.74h-0.19c-0.78,0-1.43-0.26-1.96-0.79c-0.53-0.53-0.79-1.17-0.79-1.93
		c0-0.78,0.27-1.44,0.79-1.96c0.53-0.53,1.18-0.79,1.96-0.79h0.19c0.59,0,1.16-0.12,1.69-0.35c0.54-0.23,1.01-0.55,1.41-0.95
		c0.4-0.4,0.72-0.87,0.95-1.39c0.23-0.53,0.35-1.1,0.35-1.71v-25.87c0-0.38,0.07-0.74,0.22-1.08c0.15-0.34,0.34-0.63,0.59-0.89
		c0.24-0.25,0.53-0.45,0.85-0.6c0.33-0.15,0.68-0.22,1.06-0.22c0.78,0,1.43,0.27,1.95,0.81c0.52,0.54,0.78,1.2,0.78,1.98V470.22z
		 M1663.82,434.85c0-0.44,0.08-0.85,0.25-1.22c0.17-0.37,0.4-0.7,0.68-0.98c0.28-0.29,0.61-0.51,0.98-0.67
		c0.37-0.16,0.77-0.24,1.19-0.24c0.89,0,1.61,0.3,2.19,0.89c0.57,0.59,0.85,1.33,0.85,2.22c0,0.42-0.08,0.82-0.24,1.19
		c-0.16,0.37-0.38,0.7-0.67,0.98c-0.28,0.29-0.62,0.51-1,0.68c-0.38,0.17-0.79,0.25-1.24,0.25c-0.87,0-1.58-0.31-2.15-0.92
		C1664.11,436.42,1663.82,435.7,1663.82,434.85z"/>
	<path class="st18" d="M1684.47,456.86c0,1.25,0.23,2.42,0.68,3.51c0.45,1.1,1.08,2.06,1.87,2.88c0.79,0.82,1.73,1.48,2.82,1.96
		c1.09,0.48,2.26,0.73,3.53,0.73c1.22,0,2.34-0.23,3.36-0.68c1.01-0.45,1.88-1.08,2.6-1.87c0.72-0.79,1.28-1.73,1.68-2.8
		c0.4-1.08,0.62-2.23,0.66-3.45v-12.86c0-0.76,0.28-1.4,0.84-1.93c0.56-0.53,1.22-0.79,1.98-0.79c0.74,0,1.37,0.26,1.88,0.79
		c0.52,0.53,0.78,1.17,0.78,1.93v24.03c0,0.8-0.16,1.45-0.47,1.95c-0.32,0.5-0.88,0.75-1.68,0.75c-0.68,0-1.23-0.26-1.65-0.78
		c-0.42-0.52-0.77-1.17-1.05-1.95l-0.03-0.22c-1.18,1.06-2.52,1.87-4.01,2.45c-1.49,0.58-3.12,0.87-4.89,0.87
		c-2.03,0-3.91-0.38-5.65-1.14c-1.74-0.76-3.26-1.8-4.56-3.12c-1.3-1.32-2.32-2.87-3.06-4.64c-0.74-1.77-1.11-3.66-1.11-5.67v-12.54
		c0-0.38,0.07-0.73,0.22-1.06c0.15-0.33,0.34-0.62,0.59-0.87c0.24-0.25,0.53-0.45,0.85-0.59s0.68-0.21,1.06-0.21
		c0.38,0,0.73,0.07,1.06,0.21s0.62,0.33,0.87,0.59c0.25,0.25,0.45,0.54,0.6,0.87c0.15,0.33,0.22,0.68,0.22,1.06V456.86z"/>
	<path class="st18" d="M1723.1,457.94c-0.93-0.36-1.88-0.76-2.85-1.2c-0.97-0.44-1.85-0.99-2.63-1.63
		c-0.78-0.64-1.42-1.41-1.92-2.31c-0.5-0.9-0.74-1.97-0.74-3.21c0-1.33,0.26-2.51,0.79-3.55c0.53-1.03,1.25-1.91,2.17-2.63
		c0.92-0.72,2-1.27,3.25-1.65c1.25-0.38,2.58-0.57,3.99-0.57c0.91,0,1.82,0.07,2.74,0.22c0.92,0.15,1.78,0.38,2.6,0.71
		c0.81,0.33,1.55,0.75,2.2,1.25c0.65,0.51,1.17,1.12,1.55,1.84c0.27,0.55,0.37,1.09,0.28,1.62c-0.08,0.53-0.27,0.96-0.57,1.3
		c-0.34,0.36-0.76,0.61-1.25,0.76c-0.5,0.15-0.99,0.11-1.47-0.13c-0.89-0.78-1.75-1.36-2.6-1.74c-0.84-0.38-1.88-0.57-3.1-0.57
		c-0.74,0-1.42,0.06-2.04,0.17c-0.62,0.12-1.16,0.31-1.62,0.57c-0.45,0.26-0.81,0.6-1.08,1c-0.26,0.4-0.4,0.89-0.4,1.46
		c0,0.55,0.15,1.01,0.44,1.38c0.3,0.37,0.7,0.69,1.22,0.97s1.12,0.52,1.81,0.74c0.69,0.22,1.43,0.46,2.23,0.71
		c1.29,0.4,2.52,0.85,3.7,1.35c1.18,0.5,2.22,1.09,3.1,1.79c0.89,0.7,1.59,1.53,2.12,2.5c0.53,0.97,0.79,2.12,0.79,3.45
		c0,1.25-0.27,2.41-0.81,3.5c-0.54,1.09-1.28,2.03-2.22,2.82c-0.94,0.79-2.05,1.41-3.32,1.87c-1.28,0.46-2.67,0.68-4.16,0.68
		c-1.01,0-2.06-0.1-3.14-0.29c-1.08-0.19-2.11-0.5-3.09-0.93c-0.98-0.43-1.88-0.99-2.69-1.66c-0.81-0.68-1.46-1.49-1.95-2.44
		c-0.42-0.8-0.55-1.52-0.38-2.17c0.17-0.64,0.5-1.12,1-1.44c0.5-0.32,1.1-0.43,1.82-0.33c0.72,0.09,1.43,0.46,2.12,1.09
		c0.59,0.84,1.44,1.54,2.53,2.09c1.1,0.55,2.35,0.82,3.77,0.82c0.65,0,1.29-0.08,1.9-0.25c0.61-0.17,1.16-0.41,1.63-0.73
		c0.48-0.32,0.85-0.69,1.12-1.13c0.27-0.43,0.41-0.92,0.41-1.47c0-0.57-0.24-1.09-0.71-1.57c-0.47-0.48-1.08-0.9-1.8-1.27
		c-0.73-0.37-1.52-0.7-2.38-1C1724.63,458.43,1723.84,458.17,1723.1,457.94z"/>
	<path class="st18" d="M1751.53,441.5h4.05c0.78,0,1.44,0.26,1.96,0.79c0.53,0.53,0.79,1.17,0.79,1.93c0,0.78-0.27,1.44-0.79,1.96
		c-0.53,0.53-1.18,0.79-1.96,0.79h-4.05v21.25c0,0.4-0.07,0.77-0.2,1.11c-0.14,0.34-0.33,0.63-0.57,0.89
		c-0.24,0.25-0.53,0.45-0.85,0.59c-0.33,0.14-0.68,0.21-1.06,0.21c-0.76,0-1.41-0.26-1.95-0.79c-0.54-0.53-0.81-1.19-0.81-2v-21.25
		h-2.85c-0.38,0-0.74-0.07-1.08-0.22c-0.34-0.15-0.63-0.35-0.89-0.6c-0.25-0.25-0.45-0.54-0.59-0.87s-0.21-0.68-0.21-1.06
		c0-0.76,0.27-1.4,0.79-1.93c0.53-0.53,1.18-0.79,1.96-0.79h2.85v-5.92c0-0.76,0.27-1.4,0.81-1.93c0.54-0.53,1.2-0.79,1.98-0.79
		c0.76,0,1.39,0.27,1.9,0.79c0.51,0.53,0.76,1.17,0.76,1.93V441.5z"/>
	<path class="st19" d="M1771.77,441.5h4.05c0.78,0,1.43,0.26,1.96,0.79c0.53,0.53,0.79,1.17,0.79,1.93c0,0.78-0.26,1.44-0.79,1.96
		c-0.53,0.53-1.18,0.79-1.96,0.79h-4.05v21.25c0,0.4-0.07,0.77-0.21,1.11c-0.14,0.34-0.33,0.63-0.57,0.89
		c-0.24,0.25-0.53,0.45-0.86,0.59c-0.33,0.14-0.68,0.21-1.06,0.21c-0.76,0-1.41-0.26-1.95-0.79c-0.54-0.53-0.81-1.19-0.81-2v-21.25
		h-2.85c-0.38,0-0.74-0.07-1.08-0.22c-0.34-0.15-0.63-0.35-0.89-0.6c-0.25-0.25-0.45-0.54-0.59-0.87c-0.14-0.33-0.21-0.68-0.21-1.06
		c0-0.76,0.26-1.4,0.79-1.93c0.53-0.53,1.18-0.79,1.96-0.79h2.85v-5.92c0-0.76,0.27-1.4,0.81-1.93c0.54-0.53,1.2-0.79,1.98-0.79
		c0.76,0,1.39,0.27,1.9,0.79c0.51,0.53,0.76,1.17,0.76,1.93V441.5z"/>
	<path class="st19" d="M1782.22,456.29c0-2.09,0.4-4.05,1.19-5.89c0.79-1.84,1.87-3.44,3.25-4.8c1.37-1.36,2.98-2.44,4.81-3.23
		c1.84-0.79,3.79-1.19,5.86-1.19c2.01,0,3.9,0.37,5.68,1.11c1.78,0.74,3.36,1.74,4.73,3.01l0.16-1.11c0.3-0.78,0.63-1.42,1-1.92
		s0.89-0.74,1.57-0.74c0.8,0,1.36,0.25,1.68,0.74s0.47,1.15,0.47,1.95v23.97c0,0.78-0.27,1.45-0.81,2
		c-0.54,0.55-1.21,0.82-2.01,0.82c-0.78,0-1.42-0.27-1.92-0.82c-0.5-0.55-0.74-1.21-0.74-2v-0.79c-1.35,1.2-2.86,2.17-4.53,2.9
		c-1.67,0.73-3.43,1.09-5.29,1.09c-2.07,0-4.02-0.4-5.86-1.19c-1.84-0.79-3.44-1.87-4.81-3.25c-1.37-1.37-2.45-2.97-3.25-4.8
		C1782.61,460.34,1782.22,458.38,1782.22,456.29z M1787.69,456.29c0,1.31,0.25,2.55,0.76,3.72c0.51,1.17,1.19,2.2,2.06,3.07
		s1.88,1.57,3.06,2.09c1.17,0.52,2.42,0.78,3.75,0.78c1.35,0,2.61-0.26,3.78-0.78c1.17-0.52,2.19-1.21,3.06-2.09
		c0.86-0.88,1.55-1.9,2.04-3.07c0.49-1.17,0.74-2.41,0.74-3.72c0-1.33-0.25-2.58-0.74-3.75c-0.5-1.17-1.18-2.19-2.04-3.06
		c-0.87-0.87-1.88-1.55-3.06-2.06c-1.17-0.51-2.43-0.76-3.78-0.76c-1.33,0-2.58,0.25-3.75,0.76c-1.17,0.51-2.19,1.19-3.06,2.06
		s-1.55,1.88-2.06,3.06C1787.95,453.71,1787.69,454.96,1787.69,456.29z"/>
	<path class="st19" d="M1820.69,444.22c0-0.8,0.16-1.45,0.48-1.95c0.32-0.5,0.86-0.74,1.65-0.74c0.7,0,1.23,0.25,1.6,0.74
		c0.37,0.5,0.7,1.14,1,1.92l0.16,1.2c1.37-1.31,2.94-2.34,4.7-3.09c1.76-0.75,3.67-1.12,5.71-1.12c2.09,0,4.05,0.4,5.87,1.19
		c1.83,0.79,3.42,1.87,4.78,3.23c1.36,1.36,2.44,2.96,3.23,4.8c0.79,1.84,1.19,3.8,1.19,5.89c0,2.09-0.39,4.05-1.19,5.87
		c-0.79,1.83-1.87,3.43-3.23,4.8c-1.36,1.37-2.96,2.45-4.78,3.25c-1.83,0.79-3.78,1.19-5.87,1.19c-1.88,0-3.66-0.32-5.33-0.97
		s-3.18-1.54-4.51-2.68v11.18c0,0.78-0.24,1.45-0.73,2c-0.49,0.55-1.13,0.82-1.93,0.82s-1.47-0.28-1.99-0.82
		c-0.53-0.55-0.79-1.21-0.79-2V444.22z M1826.36,456.29c0,1.31,0.25,2.55,0.76,3.72c0.51,1.17,1.19,2.2,2.06,3.07
		s1.88,1.57,3.06,2.09c1.17,0.52,2.42,0.78,3.75,0.78c1.35,0,2.61-0.26,3.78-0.78c1.17-0.52,2.19-1.21,3.06-2.09s1.55-1.9,2.04-3.07
		c0.5-1.17,0.74-2.41,0.74-3.72c0-1.33-0.25-2.58-0.74-3.75c-0.5-1.17-1.18-2.19-2.04-3.06s-1.88-1.55-3.06-2.06
		c-1.17-0.51-2.43-0.76-3.78-0.76c-1.33,0-2.58,0.25-3.75,0.76c-1.17,0.51-2.19,1.19-3.06,2.06s-1.55,1.88-2.06,3.06
		C1826.61,453.71,1826.36,454.96,1826.36,456.29z"/>
</g>
</svg>
