<?xml version="1.0" encoding="utf-8"?>
<!-- Generator: Adobe Illustrator 25.4.1, SVG Export Plug-In . SVG Version: 6.00 Build 0)  -->
<svg version="1.1" id="Ñëîé_1" xmlns="http://www.w3.org/2000/svg" xmlns:xlink="http://www.w3.org/1999/xlink" x="0px" y="0px"
	 viewBox="0 0 600 350" style="enable-background:new 0 0 600 350;" xml:space="preserve">
<style type="text/css">
	.st0{fill:#42E8E0;}
	.st1{fill:url(#SVGID_1_);}
	.st2{fill:#24126A;}
	.st3{fill:#FFFFFF;}
	.st4{opacity:0.51;fill:#453C9E;}
	.st5{opacity:0.8;fill:url(#SVGID_00000016787171979525015630000005338296126623680130_);}
	.st6{opacity:0.3;}
	.st7{clip-path:url(#SVGID_00000082350084993483287040000005312552803504390838_);}
	.st8{fill:#9FFFF8;}
	.st9{opacity:0.4;fill:#24126A;}
	.st10{fill:url(#SVGID_00000051385365220351575640000008836209186773437843_);}
	.st11{opacity:0.3;fill:#0F054C;}
	.st12{fill:url(#SVGID_00000182516271198729810540000011156821640448905903_);}
	.st13{fill:#0F054C;}
	.st14{opacity:0.4;fill:#42E8E0;}
	.st15{fill:url(#SVGID_00000039849386133368244550000011466529481981412259_);}
	.st16{fill:url(#SVGID_00000063635714519683176140000008254845353795099301_);}
	.st17{fill:#5351AF;}
	.st18{fill:url(#SVGID_00000003820304645625982920000010013545958484644792_);}
	.st19{fill:url(#SVGID_00000074404741940899285670000006383466198371689403_);}
	.st20{fill:url(#SVGID_00000082358450554995441250000007808432721879998393_);}
	.st21{fill:url(#SVGID_00000126313095499646402670000015992034560866739641_);}
	.st22{opacity:0.1;}
	.st23{opacity:0.2;fill:#42E8E0;}
	.st24{clip-path:url(#SVGID_00000067950861890630985490000011096978286574283675_);}
	.st25{fill:#BCBEFF;}
	.st26{fill:none;}
</style>
<g>
	<path class="st0" d="M289.27,309.78c-4,0-7.82-0.81-10.67-2.45l-139.61-80.6c-2.8-1.62-4.34-3.87-4.34-6.34
		c0-2.96,2.22-5.94,6.08-8.17L406.99,58.49c7.24-4.18,18.24-4.63,24.52-1l139.61,80.6c2.8,1.62,4.34,3.87,4.34,6.33
		c0,2.96-2.22,5.94-6.08,8.17L303.12,306.33C299.16,308.61,294.08,309.78,289.27,309.78z M278.9,306.81
		c6.11,3.53,16.84,3.08,23.92-1l266.27-153.73c3.67-2.12,5.78-4.91,5.78-7.65c0-2.24-1.44-4.31-4.04-5.81l-139.61-80.6
		c-6.11-3.53-16.84-3.08-23.92,1L141.03,212.74c-3.67,2.12-5.78,4.91-5.78,7.65c0,2.25,1.44,4.31,4.04,5.81L278.9,306.81z"/>
</g>
<g>
	<linearGradient id="SVGID_1_" gradientUnits="userSpaceOnUse" x1="134.948" y1="160.7401" x2="575.166" y2="160.7401">
		<stop  offset="0" style="stop-color:#BCBEFF"/>
		<stop  offset="0.151" style="stop-color:#A3A7F5"/>
		<stop  offset="0.3866" style="stop-color:#8289E8"/>
		<stop  offset="0.6124" style="stop-color:#6A73DF"/>
		<stop  offset="0.8221" style="stop-color:#5C66D9"/>
		<stop  offset="1" style="stop-color:#5761D7"/>
	</linearGradient>
	<path class="st1" d="M575.17,107.19l-20.05,3.45L431.36,39.2c-6.21-3.58-17.05-3.13-24.22,1L170.4,176.89l-35.45,6.1l0,12.57
		l0.02,0c-0.02,2.29,1.34,4.48,4.17,6.12l139.61,80.6c6.21,3.58,17.05,3.13,24.22-1l266.27-153.73c3.86-2.23,5.85-5.07,5.91-7.78
		l0.02,0V107.19z"/>
	<path class="st2" d="M278.75,269.62l-139.61-80.6c-6.21-3.58-5.43-9.84,1.74-13.98L407.14,21.31c7.17-4.14,18.01-4.59,24.22-1
		l139.61,80.6c6.21,3.58,5.43,9.84-1.74,13.98L302.97,268.62C295.8,272.76,284.96,273.21,278.75,269.62z"/>
	<path class="st3" d="M569.24,114.89L302.97,268.62c-7.17,4.14-18.01,4.59-24.22,1l-139.61-80.6c-2.49-1.44-3.84-3.31-4.12-5.3
		c-0.38,2.58,0.95,5.1,4.12,6.93l139.61,80.6c6.21,3.58,17.05,3.13,24.22-1l266.27-153.73c4.29-2.48,6.28-5.72,5.86-8.69
		C574.72,110.32,572.75,112.86,569.24,114.89z"/>
	<path class="st4" d="M279.03,266.5l-134.64-77.75c-6.01-3.47-5.25-9.53,1.68-13.53L407.4,24.38c6.94-4,17.43-4.44,23.44-0.97
		l134.64,77.75c6.01,3.47,5.25,9.53-1.68,13.53L302.46,265.53C295.53,269.53,285.03,269.97,279.03,266.5z"/>
</g>
<g>
	
		<linearGradient id="SVGID_00000088847539532307014550000002217324924818647178_" gradientUnits="userSpaceOnUse" x1="416.3723" y1="223.019" x2="293.4891" y2="59.9475">
		<stop  offset="0" style="stop-color:#42E8E0"/>
		<stop  offset="0.1055" style="stop-color:#37B6BF"/>
		<stop  offset="0.2197" style="stop-color:#2C87A1"/>
		<stop  offset="0.338" style="stop-color:#235F87"/>
		<stop  offset="0.4587" style="stop-color:#1C3F72"/>
		<stop  offset="0.5824" style="stop-color:#162561"/>
		<stop  offset="0.7105" style="stop-color:#121355"/>
		<stop  offset="0.8458" style="stop-color:#10084E"/>
		<stop  offset="1" style="stop-color:#0F054C"/>
	</linearGradient>
	<path style="opacity:0.8;fill:url(#SVGID_00000088847539532307014550000002217324924818647178_);" d="M289.2,265.79
		c-3.9,0-7.62-0.78-10.39-2.39l-134.64-77.75c-2.76-1.59-4.27-3.81-4.27-6.25c0-2.92,2.17-5.85,5.95-8.03L407.18,20.53
		c7.04-4.07,17.75-4.5,23.87-0.97l134.64,77.75c2.75,1.59,4.27,3.81,4.27,6.25c0,2.92-2.17,5.85-5.96,8.03L302.68,262.43
		C298.83,264.66,293.89,265.79,289.2,265.79z M279.24,262.65c5.87,3.39,16.19,2.96,23-0.97l261.33-150.84
		c3.51-2.03,5.52-4.68,5.52-7.28c0-2.12-1.36-4.07-3.84-5.5L430.62,20.31c-5.88-3.39-16.2-2.96-23,0.97L146.29,172.12
		c-3.51,2.02-5.52,4.68-5.52,7.28c0,2.12,1.36,4.07,3.84,5.5L279.24,262.65z"/>
</g>
<g class="st6">
	<defs>
		<path id="SVGID_00000032637673707945206140000005733610738538242700_" class="st6" d="M279.03,263.03l-134.64-77.75
			c-6.01-3.47-5.25-9.53,1.68-13.53L407.4,20.91c6.94-4,17.43-4.44,23.44-0.97l134.64,77.75c6.01,3.47,5.25,9.53-1.68,13.53
			L302.46,262.06C295.53,266.06,285.03,266.5,279.03,263.03z"/>
	</defs>
	
		<radialGradient id="SVGID_00000025433378698783653470000009294403071035595142_" cx="333.0112" cy="137.6857" r="344.5602" gradientUnits="userSpaceOnUse">
		<stop  offset="0" style="stop-color:#42E8E0"/>
		<stop  offset="0.1055" style="stop-color:#37B6BF"/>
		<stop  offset="0.2197" style="stop-color:#2C87A1"/>
		<stop  offset="0.338" style="stop-color:#235F87"/>
		<stop  offset="0.4587" style="stop-color:#1C3F72"/>
		<stop  offset="0.5824" style="stop-color:#162561"/>
		<stop  offset="0.7105" style="stop-color:#121355"/>
		<stop  offset="0.8458" style="stop-color:#10084E"/>
		<stop  offset="1" style="stop-color:#0F054C"/>
	</radialGradient>
	
		<use xlink:href="#SVGID_00000032637673707945206140000005733610738538242700_"  style="overflow:visible;opacity:0.5;fill:url(#SVGID_00000025433378698783653470000009294403071035595142_);"/>
	<clipPath id="SVGID_00000011710304888782495540000015717762556081302915_">
		<use xlink:href="#SVGID_00000032637673707945206140000005733610738538242700_"  style="overflow:visible;opacity:0.5;"/>
	</clipPath>
	<g style="clip-path:url(#SVGID_00000011710304888782495540000015717762556081302915_);">
		<path class="st8" d="M475.92,187.22l-1.94-0.25c-0.21-0.15-0.43-0.3-0.67-0.44l-149.81-86.49c-3.87-2.23-10.63-1.95-15.1,0.63
			L221,151.12c-1.17,0.67-2.05,1.44-2.67,2.24l-1.03-0.3v3.02l0.01,0c0.01,1.41,0.86,2.76,2.61,3.76l149.81,86.49
			c3.87,2.23,10.63,1.95,15.1-0.63l87.4-50.46c2.5-1.44,3.75-3.3,3.69-5.04l0,0V187.22z"/>
		<path class="st0" d="M369.72,243.3l-149.81-86.49c-3.87-2.23-3.39-6.14,1.08-8.72l87.4-50.46c4.47-2.58,11.23-2.86,15.1-0.63
			l149.81,86.49c3.87,2.23,3.39,6.14-1.08,8.72l-87.4,50.46C380.36,245.25,373.59,245.53,369.72,243.3z"/>
	</g>
</g>
<g class="st6">
	<defs>
		<path id="SVGID_00000049191218762230615150000007421963028712817547_" class="st6" d="M279.03,263.03l-134.64-77.75
			c-6.01-3.47-5.25-9.53,1.68-13.53L407.4,20.91c6.94-4,17.43-4.44,23.44-0.97l134.64,77.75c6.01,3.47,5.25,9.53-1.68,13.53
			L302.46,262.06C295.53,266.06,285.03,266.5,279.03,263.03z"/>
	</defs>
	<clipPath id="SVGID_00000039826291250909397050000001614293868300168069_">
		<use xlink:href="#SVGID_00000049191218762230615150000007421963028712817547_"  style="overflow:visible;"/>
	</clipPath>
</g>
<path class="st9" d="M536.72,110.6c-2.05,1.19-5.39,1.19-7.44,0c-2.05-1.19-2.06-3.11,0-4.3c2.06-1.19,5.39-1.19,7.44,0
	C538.77,107.49,538.77,109.41,536.72,110.6z"/>
<path class="st9" d="M508.31,89.9l14.57,8.41c1.78,1.03,1.56,2.82-0.5,4.01l0,0c-2.05,1.19-5.16,1.32-6.94,0.29l-14.57-8.41
	c-1.78-1.03-1.56-2.82,0.5-4.01l0,0C503.42,89,506.53,88.87,508.31,89.9z"/>
<path class="st9" d="M426.44,41.63l14.57,8.41c1.78,1.03,1.56,2.82-0.5,4.01l0,0c-2.06,1.19-5.16,1.32-6.94,0.29L419,45.92
	c-1.78-1.03-1.56-2.82,0.5-4.01l0,0C421.55,40.73,424.66,40.6,426.44,41.63z"/>
<path class="st0" d="M536.72,105.37c-2.05,1.19-5.39,1.19-7.44,0c-2.05-1.19-2.06-3.11,0-4.3c2.06-1.19,5.39-1.19,7.44,0
	C538.77,102.26,538.77,104.19,536.72,105.37z"/>
<path class="st0" d="M508.31,84.68l14.57,8.41c1.78,1.03,1.56,2.82-0.5,4.01l0,0c-2.05,1.19-5.16,1.32-6.94,0.29l-14.57-8.41
	c-1.78-1.03-1.56-2.82,0.5-4.01l0,0C503.42,83.78,506.53,83.65,508.31,84.68z"/>
<path class="st0" d="M426.44,36.4l14.57,8.41c1.78,1.03,1.56,2.82-0.5,4.01l0,0c-2.06,1.19-5.16,1.32-6.94,0.29L419,40.7
	c-1.78-1.03-1.56-2.82,0.5-4.01l0,0C421.55,35.5,424.66,35.38,426.44,36.4z"/>
<g>
	<g class="st6">
		
			<linearGradient id="SVGID_00000055692185575489055710000015975182868644495009_" gradientUnits="userSpaceOnUse" x1="93.9854" y1="295.1091" x2="155.8726" y2="330.8397">
			<stop  offset="0" style="stop-color:#BCBEFF"/>
			<stop  offset="0.2271" style="stop-color:#AAADF8"/>
			<stop  offset="0.6802" style="stop-color:#7C83E5"/>
			<stop  offset="1" style="stop-color:#5761D7"/>
		</linearGradient>
		<path style="fill:url(#SVGID_00000055692185575489055710000015975182868644495009_);" d="M164.23,315.41l0-6.8l-1.88-1.05
			c-0.53,3.21-4.31,5.32-7.46,5.76l-21.49,12.57l-9.38,3.39l-29.94-15.45l0.69-0.4c-2.56-1.2-3.94-3.93-5.32-6.42l-2.02,1.2
			l-1.2,0.34v6.97l0,0c0,1.33,0.88,2.66,2.63,3.68l30,17.32c3.51,2.03,9.23,2.03,12.74,0l30-17.32c1.73-1,2.61-2.3,2.63-3.61
			C164.23,315.53,164.22,315.47,164.23,315.41L164.23,315.41z"/>
		<path class="st11" d="M154.88,313.33l-21.49,12.57l-8.16,2.95v9.19c2.31,0,4.61-0.51,6.37-1.52l30-17.32
			c1.73-1,2.61-2.3,2.63-3.61c0-0.06,0-0.12,0-0.18l0,0l0-6.8l-1.72-0.96h-0.18C161.74,310.82,158.01,312.89,154.88,313.33z"/>
		<g>
			
				<linearGradient id="SVGID_00000168831546652431677480000004163341811145678987_" gradientUnits="userSpaceOnUse" x1="86.2253" y1="308.6151" x2="164.2265" y2="308.6151">
				<stop  offset="0" style="stop-color:#E9E9FD"/>
				<stop  offset="0.3601" style="stop-color:#D3D2F9"/>
				<stop  offset="0.7062" style="stop-color:#C5C4F7"/>
				<stop  offset="1" style="stop-color:#C0BFF6"/>
			</linearGradient>
			<path style="fill:url(#SVGID_00000168831546652431677480000004163341811145678987_);" d="M118.86,329.61l-30-17.32
				c-3.51-2.03-3.51-5.33,0-7.36l30-17.32c3.51-2.03,9.23-2.03,12.74,0l30,17.32c3.51,2.03,3.51,5.33,0,7.35l-30,17.32
				C128.08,331.64,122.37,331.64,118.86,329.61z"/>
		</g>
		<g class="st6">
			<path class="st13" d="M118.86,329.61l-30-17.32c-3.51-2.03-3.51-5.33,0-7.36l30-17.32c3.51-2.03,9.23-2.03,12.74,0l30,17.32
				c3.51,2.03,3.51,5.33,0,7.35l-30,17.32C128.08,331.64,122.37,331.64,118.86,329.61z"/>
		</g>
	</g>
	<g>
		<g>
			<path class="st0" d="M125.23,304.42c-2.05,0-4.1-0.45-5.65-1.35l-30-17.32c-1.56-0.9-2.42-2.11-2.42-3.42
				c0-1.3,0.86-2.52,2.42-3.41l30-17.32c3.12-1.8,8.19-1.8,11.31,0l30,17.32c1.56,0.9,2.42,2.11,2.42,3.42s-0.86,2.52-2.42,3.42
				l-30,17.32C129.32,303.96,127.27,304.42,125.23,304.42z M125.23,260.76c-1.95,0-3.9,0.43-5.39,1.29l-30,17.32
				c-1.39,0.8-2.15,1.85-2.15,2.96s0.76,2.16,2.15,2.96l30,17.32c2.97,1.72,7.81,1.72,10.78,0l30-17.32
				c1.39-0.8,2.15-1.85,2.15-2.96s-0.76-2.16-2.15-2.96l-30-17.32C129.13,261.19,127.18,260.76,125.23,260.76z"/>
			<g>
				<path class="st14" d="M164.23,275.68v-10.27l-1.88-1.05c-0.53,3.21-4.31,5.32-7.46,5.76l-21.49,12.57l-9.38,3.39l-29.94-15.45
					l0.69-0.4c-2.56-1.2-3.94-3.93-5.32-6.42l-2.02,1.2l-1.2,0.34v10.45h0c0,1.33,0.88,2.66,2.63,3.68l30,17.32
					c3.51,2.03,9.23,2.03,12.74,0l30-17.32c1.73-1,2.61-2.3,2.63-3.61C164.23,275.8,164.22,275.74,164.23,275.68L164.23,275.68z"/>
				<g>
					<g>
						
							<linearGradient id="SVGID_00000121992589627981653000000017647225313056265354_" gradientUnits="userSpaceOnUse" x1="93.9854" y1="246.2508" x2="155.8726" y2="281.9814">
							<stop  offset="0" style="stop-color:#BCBEFF"/>
							<stop  offset="0.2271" style="stop-color:#AAADF8"/>
							<stop  offset="0.6802" style="stop-color:#7C83E5"/>
							<stop  offset="1" style="stop-color:#5761D7"/>
						</linearGradient>
						<path style="fill:url(#SVGID_00000121992589627981653000000017647225313056265354_);" d="M164.23,266.55v-6.8l-1.88-1.05
							c-0.53,3.21-4.31,5.32-7.46,5.76l-21.49,12.57l-9.38,3.39l-29.94-15.45l0.69-0.4c-2.56-1.2-3.94-3.93-5.32-6.42l-2.02,1.2
							l-1.2,0.34v6.97h0c0,1.33,0.88,2.66,2.63,3.68l30,17.32c3.51,2.03,9.23,2.03,12.74,0l30-17.32c1.73-1,2.61-2.3,2.63-3.61
							C164.23,266.67,164.22,266.61,164.23,266.55L164.23,266.55z"/>
						<path class="st11" d="M154.88,264.47l-21.49,12.57l-8.16,2.95v9.19c2.31,0,4.61-0.51,6.37-1.52l30-17.32
							c1.73-1,2.61-2.3,2.63-3.61c0-0.06,0-0.12,0-0.18l0,0v-6.8l-1.72-0.96h-0.18C161.74,261.96,158.01,264.04,154.88,264.47z"/>
						<g>
							
								<linearGradient id="SVGID_00000110440325569223340940000011456037847221747073_" gradientUnits="userSpaceOnUse" x1="86.2253" y1="259.7568" x2="164.2266" y2="259.7568">
								<stop  offset="0" style="stop-color:#E9E9FD"/>
								<stop  offset="0.3601" style="stop-color:#D3D2F9"/>
								<stop  offset="0.7062" style="stop-color:#C5C4F7"/>
								<stop  offset="1" style="stop-color:#C0BFF6"/>
							</linearGradient>
							<path style="fill:url(#SVGID_00000110440325569223340940000011456037847221747073_);" d="M118.86,280.75l-30-17.32
								c-3.51-2.03-3.51-5.33,0-7.36l30-17.32c3.51-2.03,9.23-2.03,12.74,0l30,17.32c3.51,2.03,3.51,5.33,0,7.35l-30,17.32
								C128.08,282.78,122.37,282.78,118.86,280.75z"/>
						</g>
						<g>
							<path class="st17" d="M125.23,277.61c-1.85,0-3.7-0.41-5.11-1.22h0l-23.44-13.53c-1.41-0.82-2.19-1.92-2.19-3.1
								c0-1.18,0.78-2.29,2.19-3.1l23.44-13.53c2.82-1.63,7.4-1.63,10.22,0l23.44,13.53c1.41,0.81,2.19,1.92,2.19,3.1
								c0,1.18-0.78,2.29-2.19,3.1l-23.44,13.53C128.93,277.2,127.08,277.61,125.23,277.61z M125.23,242.42
								c-1.75,0-3.51,0.39-4.84,1.16l-23.44,13.53c-1.24,0.72-1.93,1.66-1.93,2.65c0,0.99,0.68,1.93,1.93,2.65l23.44,13.53
								c2.67,1.54,7.02,1.54,9.69,0l23.44-13.53c1.24-0.72,1.93-1.66,1.93-2.65c0-0.99-0.68-1.93-1.93-2.64l-23.44-13.53
								C128.73,242.81,126.98,242.42,125.23,242.42z"/>
						</g>
						<g>
							<path class="st3" d="M161.59,263.43l-30,17.32c-3.51,2.03-9.23,2.03-12.74,0l-30-17.32c-1.57-0.91-2.44-2.07-2.6-3.25
								c-0.21,1.47,0.66,2.98,2.6,4.1l30,17.32c3.51,2.03,9.23,2.03,12.74,0l30-17.32c1.94-1.12,2.81-2.63,2.6-4.1
								C164.03,261.37,163.16,262.53,161.59,263.43z"/>
						</g>
					</g>
				</g>
			</g>
		</g>
	</g>
</g>
<g class="st6">
	
		<linearGradient id="SVGID_00000163039292687729411040000007837775438874137997_" gradientUnits="userSpaceOnUse" x1="131.7885" y1="92.4084" x2="193.6757" y2="128.1389">
		<stop  offset="0" style="stop-color:#BCBEFF"/>
		<stop  offset="0.2271" style="stop-color:#AAADF8"/>
		<stop  offset="0.6802" style="stop-color:#7C83E5"/>
		<stop  offset="1" style="stop-color:#5761D7"/>
	</linearGradient>
	<path style="fill:url(#SVGID_00000163039292687729411040000007837775438874137997_);" d="M202.03,112.71v-6.8l-1.88-1.05
		c-0.53,3.21-4.31,5.32-7.46,5.76l-21.49,12.57l-9.38,3.39l-29.94-15.45l0.69-0.4c-2.56-1.2-3.94-3.93-5.32-6.42l-2.02,1.2
		l-1.2,0.34v6.97l0,0c0,1.33,0.88,2.66,2.63,3.68l30,17.32c3.51,2.03,9.23,2.03,12.74,0l30-17.32c1.73-1,2.61-2.3,2.63-3.61
		C202.03,112.83,202.03,112.77,202.03,112.71L202.03,112.71z"/>
	<path class="st11" d="M192.69,110.63l-21.49,12.57l-8.16,2.95v9.19c2.31,0,4.61-0.51,6.37-1.52l30-17.32c1.73-1,2.61-2.3,2.63-3.61
		c0-0.06,0-0.12,0-0.18l0,0v-6.8l-1.72-0.96h-0.18C199.55,108.12,195.81,110.19,192.69,110.63z"/>
	<g>
		
			<linearGradient id="SVGID_00000008858644389798430640000005498508013945323710_" gradientUnits="userSpaceOnUse" x1="124.0284" y1="105.9144" x2="202.0296" y2="105.9144">
			<stop  offset="0" style="stop-color:#E9E9FD"/>
			<stop  offset="0.3601" style="stop-color:#D3D2F9"/>
			<stop  offset="0.7062" style="stop-color:#C5C4F7"/>
			<stop  offset="1" style="stop-color:#C0BFF6"/>
		</linearGradient>
		<path style="fill:url(#SVGID_00000008858644389798430640000005498508013945323710_);" d="M156.66,126.91l-30-17.32
			c-3.51-2.03-3.51-5.33,0-7.36l30-17.32c3.51-2.03,9.23-2.03,12.74,0l30,17.32c3.51,2.03,3.51,5.33,0,7.35l-30,17.32
			C165.89,128.94,160.17,128.94,156.66,126.91z"/>
	</g>
	<g class="st6">
		<path class="st13" d="M156.66,126.91l-30-17.32c-3.51-2.03-3.51-5.33,0-7.36l30-17.32c3.51-2.03,9.23-2.03,12.74,0l30,17.32
			c3.51,2.03,3.51,5.33,0,7.35l-30,17.32C165.89,128.94,160.17,128.94,156.66,126.91z"/>
	</g>
</g>
<g>
	<g>
		<path class="st0" d="M163.03,105.08c-2.05,0-4.1-0.45-5.65-1.35l-30-17.32c-1.56-0.9-2.42-2.11-2.42-3.42
			c0-1.3,0.86-2.52,2.42-3.42l30-17.32c3.12-1.8,8.19-1.8,11.31,0l30,17.32c1.56,0.9,2.42,2.11,2.42,3.42c0,1.3-0.86,2.52-2.42,3.42
			l-30,17.32C167.13,104.63,165.08,105.08,163.03,105.08z M163.03,61.43c-1.95,0-3.9,0.43-5.39,1.29l-30,17.32
			c-1.39,0.8-2.15,1.85-2.15,2.96c0,1.11,0.76,2.16,2.15,2.96l30,17.32c2.97,1.72,7.81,1.72,10.78,0l30-17.32
			c1.39-0.8,2.15-1.85,2.15-2.96c0-1.11-0.76-2.16-2.15-2.96l-30-17.32C166.93,61.86,164.98,61.43,163.03,61.43z"/>
		<g>
			<path class="st14" d="M202.03,76.35V66.07l-1.88-1.05c-0.53,3.21-4.31,5.32-7.46,5.76l-21.49,12.57l-9.38,3.39l-29.94-15.45
				l0.69-0.4c-2.56-1.2-3.94-3.93-5.32-6.42l-2.02,1.2l-1.2,0.34v10.45l0,0c0,1.33,0.88,2.66,2.63,3.68l30,17.32
				c3.51,2.03,9.23,2.03,12.74,0l30-17.32c1.73-1,2.61-2.3,2.63-3.61C202.03,76.46,202.03,76.4,202.03,76.35L202.03,76.35z"/>
			<g>
				<g>
					
						<linearGradient id="SVGID_00000157265730246589803660000007020993005992802453_" gradientUnits="userSpaceOnUse" x1="131.7885" y1="46.9139" x2="193.6757" y2="82.6445">
						<stop  offset="0" style="stop-color:#BCBEFF"/>
						<stop  offset="0.2271" style="stop-color:#AAADF8"/>
						<stop  offset="0.6802" style="stop-color:#7C83E5"/>
						<stop  offset="1" style="stop-color:#5761D7"/>
					</linearGradient>
					<path style="fill:url(#SVGID_00000157265730246589803660000007020993005992802453_);" d="M202.03,67.22v-6.8l-1.88-1.05
						c-0.53,3.21-4.31,5.32-7.46,5.76L171.19,77.7l-9.38,3.39l-29.94-15.45l0.69-0.4c-2.56-1.2-3.94-3.93-5.32-6.42l-2.02,1.2
						l-1.2,0.34v6.97l0,0c0,1.33,0.88,2.66,2.63,3.68l30,17.32c3.51,2.03,9.23,2.03,12.74,0l30-17.32c1.73-1,2.61-2.3,2.63-3.61
						C202.03,67.33,202.03,67.27,202.03,67.22L202.03,67.22z"/>
					<path class="st11" d="M192.69,65.13L171.19,77.7l-8.16,2.95v9.19c2.31,0,4.61-0.51,6.37-1.52l30-17.32
						c1.73-1,2.61-2.3,2.63-3.61c0-0.06,0-0.12,0-0.18l0,0v-6.8l-1.72-0.96h-0.18C199.55,62.62,195.81,64.7,192.69,65.13z"/>
					<g>
						
							<linearGradient id="SVGID_00000091013143724268243810000006397528020443825570_" gradientUnits="userSpaceOnUse" x1="124.0284" y1="60.4199" x2="202.0296" y2="60.4199">
							<stop  offset="0" style="stop-color:#E9E9FD"/>
							<stop  offset="0.3601" style="stop-color:#D3D2F9"/>
							<stop  offset="0.7062" style="stop-color:#C5C4F7"/>
							<stop  offset="1" style="stop-color:#C0BFF6"/>
						</linearGradient>
						<path style="fill:url(#SVGID_00000091013143724268243810000006397528020443825570_);" d="M156.66,81.42l-30-17.32
							c-3.51-2.03-3.51-5.33,0-7.36l30-17.32c3.51-2.03,9.23-2.03,12.74,0l30,17.32c3.51,2.03,3.51,5.33,0,7.35l-30,17.32
							C165.89,83.44,160.17,83.44,156.66,81.42z"/>
					</g>
					<g>
						<path class="st17" d="M163.03,78.27c-1.85,0-3.7-0.41-5.11-1.22h0l-23.44-13.53c-1.41-0.82-2.19-1.92-2.19-3.1
							c0-1.18,0.78-2.29,2.19-3.1l23.44-13.53c2.82-1.62,7.4-1.62,10.21,0l23.44,13.53c1.41,0.82,2.19,1.92,2.19,3.1
							c0,1.18-0.78,2.29-2.19,3.1l-23.44,13.53C166.73,77.86,164.88,78.27,163.03,78.27z M163.03,43.09c-1.75,0-3.51,0.39-4.84,1.16
							l-23.44,13.53c-1.24,0.72-1.93,1.66-1.93,2.64c0,0.99,0.68,1.93,1.93,2.65l23.44,13.53c2.67,1.54,7.02,1.54,9.69,0
							l23.44-13.53c1.24-0.72,1.93-1.66,1.93-2.64c0-0.99-0.68-1.93-1.93-2.65l-23.44-13.53C166.54,43.47,164.78,43.09,163.03,43.09
							z"/>
					</g>
					<g>
						<path class="st3" d="M199.4,64.1l-30,17.32c-3.51,2.03-9.23,2.03-12.74,0l-30-17.32c-1.57-0.91-2.44-2.07-2.6-3.25
							c-0.21,1.47,0.66,2.98,2.6,4.1l30,17.32c3.51,2.03,9.23,2.03,12.74,0l30-17.32c1.94-1.12,2.81-2.63,2.6-4.1
							C201.83,62.03,200.97,63.19,199.4,64.1z"/>
					</g>
				</g>
			</g>
		</g>
	</g>
</g>
<g>
	<path class="st9" d="M364.56,202.4l-116.37-67.19c-3.01-1.74-2.63-4.77,0.84-6.77l67.89-39.2c3.47-2,8.72-2.22,11.73-0.49
		l116.37,67.19c3.01,1.74,2.63,4.77-0.84,6.77l-67.89,39.2C372.82,203.91,367.57,204.13,364.56,202.4z"/>
	<path class="st8" d="M475.92,103.69l-1.94-0.25c-0.21-0.15-0.43-0.3-0.67-0.44L323.49,16.5c-3.87-2.23-10.63-1.95-15.1,0.63
		L221,67.59c-1.17,0.67-2.05,1.44-2.67,2.24l-1.03-0.3v3.02l0.01,0c0.01,1.41,0.86,2.76,2.61,3.76l149.81,86.49
		c3.87,2.23,10.63,1.95,15.1-0.63l87.4-50.46c2.5-1.44,3.75-3.3,3.69-5.04l0,0V103.69z"/>
	<path class="st0" d="M369.72,159.77L219.91,73.27c-3.87-2.23-3.39-6.14,1.08-8.72l87.4-50.46c4.47-2.58,11.23-2.86,15.1-0.63
		l149.81,86.49c3.87,2.23,3.39,6.14-1.08,8.72l-87.4,50.46C380.36,161.72,373.59,162,369.72,159.77z"/>
</g>
<g>
	<g class="st22">
		<path class="st8" d="M470.87,289.85c0-16.91,11.87-37.47,26.52-45.93c7.34-4.24,13.98-4.63,18.78-1.84v0l5.01,2.93l-1.46,0.14
			c2.64,3.24,4.18,8,4.18,14.08c0,16.91-11.87,37.47-26.52,45.93c-5.03,2.91-9.74,4-13.75,3.51l0.11,1.34l-5.09-2.98
			c-0.02-0.01-0.04-0.02-0.06-0.04l-0.21-0.12l0.01,0C473.74,304.04,470.87,298.16,470.87,289.85z"/>
		<ellipse transform="matrix(0.5 -0.866 0.866 0.5 10.8967 573.8777)" class="st0" cx="502.45" cy="277.5" rx="37.5" ry="21.65"/>
	</g>
	<path class="st23" d="M500.74,328.53c-23.22,0-46.43-5.1-64.1-15.3c-17.17-9.91-26.63-23.11-26.63-37.16
		c0-14.05,9.46-27.25,26.63-37.16c35.35-20.41,92.86-20.4,128.2,0c17.17,9.91,26.63,23.11,26.63,37.16
		c0,14.05-9.46,27.25-26.63,37.16C547.17,323.43,523.95,328.53,500.74,328.53z M500.74,224.12c-23.12,0-46.24,5.08-63.84,15.24
		c-17,9.82-26.37,22.85-26.37,36.71c0,13.85,9.36,26.89,26.37,36.7c35.2,20.32,92.48,20.32,127.68,0
		c17-9.82,26.37-22.85,26.37-36.71c0-13.85-9.36-26.89-26.37-36.71C546.98,229.2,523.86,224.12,500.74,224.12z"/>
	<path class="st0" d="M500.74,308.71c-14.42,0-28.83-3.17-39.81-9.5l0,0c-10.68-6.17-16.56-14.38-16.57-23.13
		c0-8.75,5.88-16.97,16.57-23.14c21.95-12.67,57.67-12.67,79.62,0c10.68,6.17,16.57,14.38,16.57,23.14s-5.88,16.97-16.57,23.14
		C529.57,305.54,515.16,308.71,500.74,308.71z M500.74,243.94c-14.32,0-28.64,3.15-39.55,9.44c-10.51,6.07-16.31,14.13-16.31,22.68
		c0,8.56,5.79,16.61,16.3,22.68l0,0c21.81,12.59,57.29,12.59,79.09,0c10.51-6.07,16.31-14.13,16.31-22.68
		c0-8.56-5.79-16.61-16.3-22.68C529.38,247.09,515.06,243.94,500.74,243.94z"/>
	<g>
		<defs>
			<polygon id="SVGID_00000021103054084210178250000010192360474418466974_" points="459.22,283.14 475.89,292.75 542.26,254.43 
				542.26,180.73 459.22,228.68 			"/>
		</defs>
		<clipPath id="SVGID_00000145761472176401081840000012863684317313569449_">
			<use xlink:href="#SVGID_00000021103054084210178250000010192360474418466974_"  style="overflow:visible;"/>
		</clipPath>
		<g style="clip-path:url(#SVGID_00000145761472176401081840000012863684317313569449_);">
			<path class="st8" d="M470.87,289.85c0-16.91,11.87-37.47,26.52-45.93c7.34-4.24,13.98-4.63,18.78-1.84v0l5.01,2.93l-1.46,0.14
				c2.64,3.24,4.18,8,4.18,14.08c0,16.91-11.87,37.47-26.52,45.93c-5.03,2.91-9.74,4-13.75,3.51l0.11,1.34l-5.09-2.98
				c-0.02-0.01-0.04-0.02-0.06-0.04l-0.21-0.12l0.01,0C473.74,304.04,470.87,298.16,470.87,289.85z"/>
			<ellipse transform="matrix(0.5 -0.866 0.866 0.5 10.8967 573.8777)" class="st0" cx="502.45" cy="277.5" rx="37.5" ry="21.65"/>
		</g>
	</g>
</g>
<g>
	<g>
		<g>
			<path class="st25" d="M359.9,55.91l-56.34-31.13c-0.9-0.5,0.17-1.96,2.38-3.25l0,0c2.21-1.29,4.75-1.94,5.65-1.44l56.34,31.13
				c0.9,0.5-0.17,1.96-2.38,3.25l0,0C363.34,55.76,360.8,56.41,359.9,55.91z"/>
		</g>
		<g>
			<path class="st25" d="M324.37,43.98l-28.4-15.69c-0.45-0.25-0.38-0.71,0.16-1.03l0,0c0.54-0.32,1.35-0.37,1.81-0.12l28.4,15.69
				c0.45,0.25,0.38,0.71-0.16,1.03l0,0C325.64,44.18,324.83,44.23,324.37,43.98z"/>
		</g>
		<g>
			<path class="st25" d="M357.67,62.38l-28.4-15.69c-0.45-0.25-0.38-0.71,0.16-1.03l0,0c0.54-0.32,1.35-0.37,1.81-0.12l28.4,15.69
				c0.45,0.25,0.38,0.71-0.16,1.03l0,0C358.94,62.58,358.13,62.63,357.67,62.38z"/>
		</g>
	</g>
	<g>
		<g>
			<g>
				<path class="st25" d="M232.42,68.1L232.42,68.1c1.47-0.86,3.74-0.97,5.05-0.25l110.83,61.24c1.31,0.72,1.17,2.02-0.3,2.88l0,0
					c-1.47,0.86-3.74,0.97-5.05,0.25L232.12,70.98C230.82,70.26,230.95,68.96,232.42,68.1z"/>
			</g>
		</g>
		<g>
			<g>
				<path class="st25" d="M241.84,62.6L241.84,62.6c1.47-0.86,3.74-0.97,5.05-0.25l110.83,61.24c1.31,0.72,1.17,2.02-0.3,2.88v0
					c-1.47,0.86-3.74,0.97-5.05,0.25L241.54,65.47C240.23,64.75,240.37,63.46,241.84,62.6z"/>
			</g>
		</g>
		<g>
			<g>
				<path class="st25" d="M251.25,57.09L251.25,57.09c1.47-0.86,3.74-0.97,5.05-0.25l110.83,61.24c1.31,0.72,1.17,2.02-0.3,2.88h0
					c-1.47,0.86-3.74,0.97-5.05,0.25L250.96,59.97C249.65,59.24,249.78,57.95,251.25,57.09z"/>
			</g>
		</g>
		<g>
			<g>
				<path class="st25" d="M260.67,51.58L260.67,51.58c1.47-0.86,3.74-0.97,5.05-0.25l110.83,61.24c1.31,0.72,1.17,2.02-0.3,2.88l0,0
					c-1.47,0.86-3.74,0.97-5.05,0.25L260.37,54.46C259.07,53.74,259.2,52.44,260.67,51.58z"/>
			</g>
		</g>
	</g>
	<polygon class="st26" points="342.63,135.11 222.98,69 310.71,17.69 430.36,83.8 	"/>
</g>
</svg>
