<?xml version="1.0" encoding="utf-8"?>
<!-- Generator: Adobe Illustrator 25.4.1, SVG Export Plug-In . SVG Version: 6.00 Build 0)  -->
<svg version="1.1" id="Layer_1" xmlns="http://www.w3.org/2000/svg" xmlns:xlink="http://www.w3.org/1999/xlink" x="0px" y="0px"
	 viewBox="0 0 194.2 50" style="enable-background:new 0 0 194.2 50;" xml:space="preserve">
<style type="text/css">
	.st0{fill:#5D52A1;}
	.st1{fill:#EC186A;}
</style>
<g>
	<path class="st0" d="M12.79,38.47c0,0.15-0.01,0.27-0.03,0.35c-0.04,1.33-0.33,2.57-0.86,3.72c-0.53,1.15-1.24,2.16-2.12,3.02
		c-0.89,0.87-1.92,1.55-3.09,2.04c-1.17,0.5-2.42,0.74-3.75,0.74H2.76c-0.78,0-1.43-0.26-1.96-0.79C0.27,47.03,0,46.39,0,45.63
		c0-0.78,0.27-1.44,0.79-1.96c0.53-0.53,1.18-0.79,1.96-0.79h0.19c0.59,0,1.16-0.12,1.69-0.35c0.54-0.23,1.01-0.55,1.41-0.95
		c0.4-0.4,0.72-0.87,0.95-1.39c0.23-0.53,0.35-1.1,0.35-1.71V12.6c0-0.38,0.07-0.74,0.22-1.08c0.15-0.34,0.34-0.63,0.59-0.89
		c0.24-0.25,0.53-0.45,0.85-0.6c0.33-0.15,0.68-0.22,1.06-0.22c0.78,0,1.43,0.27,1.95,0.81c0.52,0.54,0.78,1.2,0.78,1.98V38.47z
		 M6.97,3.1c0-0.44,0.08-0.85,0.25-1.22c0.17-0.37,0.4-0.7,0.68-0.98C8.19,0.62,8.51,0.4,8.88,0.24C9.25,0.08,9.65,0,10.07,0
		c0.89,0,1.61,0.3,2.19,0.89c0.57,0.59,0.85,1.33,0.85,2.22c0,0.42-0.08,0.82-0.24,1.19c-0.16,0.37-0.38,0.7-0.67,0.98
		c-0.28,0.29-0.62,0.51-1,0.68c-0.38,0.17-0.79,0.25-1.24,0.25c-0.87,0-1.58-0.31-2.15-0.92S6.97,3.95,6.97,3.1z"/>
	<path class="st0" d="M27.61,25.11c0,1.25,0.23,2.42,0.68,3.51c0.45,1.1,1.08,2.06,1.87,2.88c0.79,0.82,1.73,1.48,2.82,1.96
		c1.09,0.48,2.26,0.73,3.53,0.73c1.22,0,2.34-0.23,3.36-0.68c1.01-0.45,1.88-1.08,2.6-1.87c0.72-0.79,1.28-1.73,1.68-2.8
		c0.4-1.08,0.62-2.23,0.66-3.45V12.54c0-0.76,0.28-1.4,0.84-1.93c0.56-0.53,1.22-0.79,1.98-0.79c0.74,0,1.37,0.26,1.88,0.79
		c0.52,0.53,0.78,1.17,0.78,1.93v24.03c0,0.8-0.16,1.45-0.47,1.95c-0.32,0.5-0.88,0.75-1.68,0.75c-0.68,0-1.23-0.26-1.65-0.78
		c-0.42-0.52-0.77-1.17-1.05-1.95l-0.03-0.22c-1.18,1.06-2.52,1.87-4.01,2.45c-1.49,0.58-3.12,0.87-4.89,0.87
		c-2.03,0-3.91-0.38-5.65-1.14c-1.74-0.76-3.26-1.8-4.56-3.12c-1.3-1.32-2.32-2.87-3.06-4.64c-0.74-1.77-1.11-3.66-1.11-5.67V12.54
		c0-0.38,0.07-0.73,0.22-1.06c0.15-0.33,0.34-0.62,0.59-0.87c0.24-0.25,0.53-0.45,0.85-0.59c0.33-0.14,0.68-0.21,1.06-0.21
		s0.73,0.07,1.06,0.21c0.33,0.14,0.62,0.33,0.87,0.59c0.25,0.25,0.45,0.54,0.6,0.87c0.15,0.33,0.22,0.68,0.22,1.06V25.11z"/>
	<path class="st0" d="M66.24,26.19c-0.93-0.36-1.88-0.76-2.85-1.2c-0.97-0.44-1.85-0.99-2.63-1.63c-0.78-0.64-1.42-1.41-1.92-2.31
		c-0.5-0.9-0.74-1.97-0.74-3.21c0-1.33,0.26-2.51,0.79-3.55c0.53-1.03,1.25-1.91,2.17-2.63c0.92-0.72,2-1.27,3.25-1.65
		c1.25-0.38,2.58-0.57,3.99-0.57c0.91,0,1.82,0.07,2.74,0.22c0.92,0.15,1.78,0.38,2.6,0.71c0.81,0.33,1.55,0.75,2.2,1.25
		c0.65,0.51,1.17,1.12,1.55,1.84c0.27,0.55,0.37,1.09,0.28,1.62c-0.08,0.53-0.27,0.96-0.57,1.3c-0.34,0.36-0.76,0.61-1.25,0.76
		c-0.5,0.15-0.99,0.11-1.47-0.13c-0.89-0.78-1.75-1.36-2.6-1.74c-0.84-0.38-1.88-0.57-3.1-0.57c-0.74,0-1.42,0.06-2.04,0.17
		c-0.62,0.12-1.16,0.31-1.62,0.57c-0.45,0.26-0.81,0.6-1.08,1c-0.26,0.4-0.4,0.89-0.4,1.46c0,0.55,0.15,1.01,0.44,1.38
		c0.3,0.37,0.7,0.69,1.22,0.97c0.52,0.27,1.12,0.52,1.81,0.74c0.69,0.22,1.43,0.46,2.23,0.71c1.29,0.4,2.52,0.85,3.7,1.35
		c1.18,0.5,2.22,1.09,3.1,1.79c0.89,0.7,1.59,1.53,2.12,2.5s0.79,2.12,0.79,3.45c0,1.25-0.27,2.41-0.81,3.5
		c-0.54,1.09-1.28,2.03-2.22,2.82c-0.94,0.79-2.05,1.41-3.32,1.87c-1.28,0.46-2.67,0.68-4.16,0.68c-1.01,0-2.06-0.1-3.14-0.29
		c-1.08-0.19-2.11-0.5-3.09-0.93s-1.88-0.99-2.69-1.66c-0.81-0.68-1.46-1.49-1.95-2.44c-0.42-0.8-0.55-1.52-0.38-2.17
		c0.17-0.64,0.5-1.12,1-1.44c0.5-0.32,1.1-0.43,1.82-0.33c0.72,0.09,1.43,0.46,2.12,1.09c0.59,0.84,1.44,1.54,2.53,2.09
		c1.1,0.55,2.35,0.82,3.77,0.82c0.65,0,1.29-0.08,1.9-0.25c0.61-0.17,1.16-0.41,1.63-0.73c0.48-0.32,0.85-0.69,1.13-1.13
		c0.27-0.43,0.41-0.92,0.41-1.47c0-0.57-0.24-1.09-0.71-1.57c-0.47-0.48-1.08-0.9-1.8-1.27c-0.73-0.37-1.52-0.7-2.38-1
		C67.78,26.68,66.98,26.42,66.24,26.19z"/>
	<path class="st0" d="M94.68,9.75h4.05c0.78,0,1.44,0.26,1.96,0.79c0.53,0.53,0.79,1.17,0.79,1.93c0,0.78-0.27,1.44-0.79,1.96
		c-0.53,0.53-1.18,0.79-1.96,0.79h-4.05v21.25c0,0.4-0.07,0.77-0.2,1.11c-0.14,0.34-0.33,0.63-0.57,0.89
		c-0.24,0.25-0.53,0.45-0.85,0.59c-0.33,0.14-0.68,0.21-1.06,0.21c-0.76,0-1.41-0.26-1.95-0.79c-0.54-0.53-0.81-1.19-0.81-2V15.23
		h-2.85c-0.38,0-0.74-0.07-1.08-0.22c-0.34-0.15-0.63-0.35-0.89-0.6s-0.45-0.54-0.59-0.87c-0.14-0.33-0.21-0.68-0.21-1.06
		c0-0.76,0.27-1.4,0.79-1.93c0.53-0.53,1.18-0.79,1.96-0.79h2.85V3.83c0-0.76,0.27-1.4,0.81-1.93c0.54-0.53,1.2-0.79,1.98-0.79
		c0.76,0,1.39,0.27,1.9,0.79c0.51,0.53,0.76,1.17,0.76,1.93V9.75z"/>
	<path class="st1" d="M114.91,9.75h4.05c0.78,0,1.43,0.26,1.96,0.79c0.53,0.53,0.79,1.17,0.79,1.93c0,0.78-0.26,1.44-0.79,1.96
		c-0.53,0.53-1.18,0.79-1.96,0.79h-4.05v21.25c0,0.4-0.07,0.77-0.21,1.11c-0.14,0.34-0.33,0.63-0.57,0.89
		c-0.24,0.25-0.53,0.45-0.86,0.59c-0.33,0.14-0.68,0.21-1.06,0.21c-0.76,0-1.41-0.26-1.95-0.79c-0.54-0.53-0.81-1.19-0.81-2V15.23
		h-2.85c-0.38,0-0.74-0.07-1.08-0.22c-0.34-0.15-0.63-0.35-0.89-0.6c-0.25-0.25-0.45-0.54-0.59-0.87c-0.14-0.33-0.21-0.68-0.21-1.06
		c0-0.76,0.26-1.4,0.79-1.93c0.53-0.53,1.18-0.79,1.96-0.79h2.85V3.83c0-0.76,0.27-1.4,0.81-1.93c0.54-0.53,1.2-0.79,1.98-0.79
		c0.76,0,1.39,0.27,1.9,0.79c0.51,0.53,0.76,1.17,0.76,1.93V9.75z"/>
	<path class="st1" d="M125.36,24.54c0-2.09,0.4-4.05,1.19-5.89c0.79-1.84,1.87-3.44,3.25-4.8c1.37-1.36,2.98-2.44,4.81-3.23
		c1.84-0.79,3.79-1.19,5.86-1.19c2.01,0,3.9,0.37,5.68,1.11c1.78,0.74,3.36,1.74,4.73,3.01l0.16-1.11c0.3-0.78,0.63-1.42,1-1.92
		c0.37-0.5,0.89-0.74,1.57-0.74c0.8,0,1.36,0.25,1.68,0.74c0.32,0.5,0.47,1.15,0.47,1.95v23.97c0,0.78-0.27,1.45-0.81,2
		c-0.54,0.55-1.21,0.82-2.01,0.82c-0.78,0-1.42-0.27-1.92-0.82c-0.5-0.55-0.74-1.21-0.74-2v-0.79c-1.35,1.2-2.86,2.17-4.53,2.9
		c-1.67,0.73-3.43,1.09-5.29,1.09c-2.07,0-4.02-0.4-5.86-1.19c-1.84-0.79-3.44-1.87-4.81-3.25c-1.37-1.37-2.45-2.97-3.25-4.8
		C125.76,28.59,125.36,26.63,125.36,24.54z M130.84,24.54c0,1.31,0.25,2.55,0.76,3.72c0.51,1.17,1.19,2.2,2.06,3.07
		c0.87,0.88,1.88,1.57,3.06,2.09c1.17,0.52,2.42,0.78,3.75,0.78c1.35,0,2.61-0.26,3.78-0.78c1.17-0.52,2.19-1.21,3.06-2.09
		c0.86-0.88,1.55-1.9,2.04-3.07c0.49-1.17,0.74-2.41,0.74-3.72c0-1.33-0.25-2.58-0.74-3.75c-0.5-1.17-1.18-2.19-2.04-3.06
		c-0.87-0.87-1.88-1.55-3.06-2.06c-1.17-0.51-2.43-0.76-3.78-0.76c-1.33,0-2.58,0.25-3.75,0.76c-1.17,0.51-2.19,1.19-3.06,2.06
		c-0.87,0.87-1.55,1.88-2.06,3.06C131.09,21.96,130.84,23.21,130.84,24.54z"/>
	<path class="st1" d="M163.83,12.48c0-0.8,0.16-1.45,0.48-1.95c0.32-0.5,0.86-0.74,1.65-0.74c0.7,0,1.23,0.25,1.6,0.74
		c0.37,0.5,0.7,1.14,1,1.92l0.16,1.2c1.37-1.31,2.94-2.34,4.7-3.09c1.76-0.75,3.67-1.12,5.71-1.12c2.09,0,4.05,0.4,5.87,1.19
		c1.83,0.79,3.42,1.87,4.78,3.23c1.36,1.36,2.44,2.96,3.23,4.8c0.79,1.84,1.19,3.8,1.19,5.89c0,2.09-0.39,4.05-1.19,5.87
		c-0.79,1.83-1.87,3.43-3.23,4.8c-1.36,1.37-2.96,2.45-4.78,3.25c-1.83,0.79-3.78,1.19-5.87,1.19c-1.88,0-3.66-0.32-5.34-0.97
		s-3.18-1.54-4.51-2.68v11.18c0,0.78-0.24,1.45-0.73,2c-0.49,0.55-1.13,0.82-1.93,0.82s-1.47-0.28-1.99-0.82
		c-0.53-0.55-0.79-1.21-0.79-2V12.48z M169.5,24.54c0,1.31,0.25,2.55,0.76,3.72c0.51,1.17,1.19,2.2,2.06,3.07s1.88,1.57,3.06,2.09
		c1.17,0.52,2.42,0.78,3.75,0.78c1.35,0,2.61-0.26,3.78-0.78c1.17-0.52,2.19-1.21,3.06-2.09c0.87-0.88,1.55-1.9,2.04-3.07
		c0.5-1.17,0.75-2.41,0.75-3.72c0-1.33-0.25-2.58-0.75-3.75c-0.5-1.17-1.18-2.19-2.04-3.06c-0.87-0.87-1.88-1.55-3.06-2.06
		c-1.17-0.51-2.43-0.76-3.78-0.76c-1.33,0-2.58,0.25-3.75,0.76c-1.17,0.51-2.19,1.19-3.06,2.06c-0.87,0.87-1.55,1.88-2.06,3.06
		C169.76,21.96,169.5,23.21,169.5,24.54z"/>
</g>
</svg>
